<?xml version="1.0" encoding="utf-8"?>
<!-- Generator: Adobe Illustrator 23.0.6, SVG Export Plug-In . SVG Version: 6.00 Build 0)  -->
<svg version="1.1" id="Layer_1" xmlns="http://www.w3.org/2000/svg" xmlns:xlink="http://www.w3.org/1999/xlink" x="0px" y="0px"
	 viewBox="0 0 532.13 199.88" style="enable-background:new 0 0 532.13 199.88;" xml:space="preserve">
<style type="text/css">
	.st0{fill:#F8971D;}
	.st1{fill:none;stroke:#F8971D;stroke-width:8;stroke-linecap:round;stroke-miterlimit:10;}
	.st2{fill:#7AC143;}
	.st3{fill:none;stroke:#7AC143;stroke-width:8;stroke-linecap:round;stroke-miterlimit:10;}
	.st4{fill:#009DDC;}
	.st5{fill:none;stroke:#005DAA;stroke-width:8;stroke-linecap:round;stroke-miterlimit:10;}
	.st6{fill:#005DAA;}
	.st7{fill:none;}
	.st8{font-family:'DIN2014-Regular';}
	.st9{font-size:29px;}
	.st10{fill:#F7941D;}
</style>
<g>
	<line class="st0" x1="81.33" y1="97.75" x2="96.01" y2="51.06"/>
	<g>
		<line class="st1" x1="81.33" y1="97.75" x2="89.06" y2="73.15"/>
		<g>
			<polygon class="st0" points="96.01,51.06 98.94,86.19 88.54,74.8 73.5,78.19 			"/>
		</g>
	</g>
</g>
<g>
	<line class="st2" x1="264.7" y1="97.75" x2="266.79" y2="51.06"/>
	<g>
		<line class="st3" x1="264.7" y1="97.75" x2="265.75" y2="74.19"/>
		<g>
			<polygon class="st2" points="266.79,51.06 278.65,84.26 265.68,75.92 252.01,83.06 			"/>
		</g>
	</g>
</g>
<g>
	<line class="st4" x1="411.51" y1="97.75" x2="398.53" y2="51.06"/>
	<g>
		<line class="st5" x1="411.51" y1="97.75" x2="404.74" y2="73.37"/>
		<g>
			<polygon class="st6" points="398.53,51.06 420.12,78.93 405.2,75.04 394.43,86.07 			"/>
		</g>
	</g>
</g>
<rect x="12.72" y="111.47" class="st7" width="157.89" height="65.26"/>
<text transform="matrix(1 0 0 1 12.7202 131.483)"><tspan x="0" y="0" class="st0 st8 st9">Posterior </tspan><tspan x="0" y="34.8" class="st0 st8 st9">Distribution</tspan></text>
<rect x="197.98" y="111.47" class="st7" width="157.89" height="65.26"/>
<text transform="matrix(1 0 0 1 197.977 131.4835)"><tspan x="0" y="0" class="st2 st8 st9">Likelihood</tspan><tspan x="0" y="34.8" class="st2 st8 st9">Function</tspan></text>
<rect x="377.23" y="111.47" class="st7" width="157.89" height="65.26"/>
<text transform="matrix(1 0 0 1 377.2347 131.483)"><tspan x="0" y="0" class="st6 st8 st9">Prior</tspan><tspan x="0" y="34.8" class="st6 st8 st9">Distribution</tspan></text>
<g>
	<path class="st10" d="M60.98,6.19c0.41-1.59,0.5-1.73,2.46-1.73h4.37c3.78,0,6.19,1.23,6.19,4.37c0,1.78-0.91,5.69-2.68,7.33
		c-2.27,2.05-5,2.41-7.01,2.41h-6.41L60.98,6.19 M57.7,19.74h7.73c6.46,0,12.78-4.73,12.78-9.83c0-3.5-3-6.87-8.96-6.87H54.52
		c-0.86,0-1.37,0-1.37,0.86c0,0.55,0.41,0.55,1.32,0.55c0.59,0,1.41,0.05,1.96,0.09c0.73,0.09,1,0.23,1,0.73
		c0,0.18-0.05,0.32-0.18,0.86l-6.1,24.43c-0.46,1.78-0.55,2.14-4.14,2.14c-0.77,0-1.27,0-1.27,0.86c0,0.55,0.55,0.55,0.68,0.55
		c1.27,0,4.5-0.14,5.78-0.14c0.96,0,1.96,0.05,2.91,0.05c1,0,2,0.09,2.96,0.09c0.32,0,0.91,0,0.91-0.91c0-0.5-0.41-0.5-1.27-0.5
		c-1.68,0-2.96,0-2.96-0.82c0-0.27,0.09-0.5,0.14-0.77L57.7,19.74z"/>
	<path class="st10" d="M94.44,45.04c0-0.14,0-0.23-0.77-1c-5.69-5.73-7.14-14.33-7.14-21.29c0-7.92,1.73-15.83,7.32-21.52
		c0.59-0.55,0.59-0.64,0.59-0.77c0-0.32-0.18-0.46-0.46-0.46c-0.46,0-4.55,3.09-7.23,8.87c-2.32,5.01-2.87,10.05-2.87,13.88
		c0,3.55,0.5,9.05,3,14.19c2.73,5.6,6.64,8.55,7.1,8.55C94.26,45.49,94.44,45.35,94.44,45.04"/>
	<path class="st10" d="M112.95,19.06c-0.5,2.09-1.46,5.96-3.18,9.23c-1.59,3.09-3.32,5.32-5.28,5.32c-1.5,0-2.46-1.32-2.46-5.55
		c0-1.91,0.27-4.55,1.46-9.01H112.95 M103.85,17.6c0.77-2.91,1.68-6.55,3.5-9.78c1.23-2.23,2.91-4.78,4.96-4.78
		c2.23,0,2.5,2.91,2.5,5.5c0,2.23-0.36,4.55-1.45,9.05H103.85z M117.82,11.37c0-3-0.82-9.32-5.46-9.32
		c-6.32,0-13.33,12.83-13.33,23.25c0,4.28,1.32,9.33,5.46,9.33C110.9,34.62,117.82,21.56,117.82,11.37z"/>
	<path class="st10" d="M126.9,1.64c0-0.82,0-1.64-0.91-1.64c-0.91,0-0.91,0.82-0.91,1.64v42.22c0,0.82,0,1.64,0.91,1.64
		c0.91,0,0.91-0.82,0.91-1.64V1.64"/>
	<path class="st10" d="M146.34,28.71c-0.23,0.82-0.23,0.91-0.91,1.68c-2,2.5-3.87,3.23-5.14,3.23c-2.27,0-2.91-2.5-2.91-4.28
		c0-2.28,1.46-7.87,2.5-9.96c1.41-2.68,3.46-4.37,5.28-4.37c2.96,0,3.59,3.73,3.59,4c0,0.27-0.09,0.55-0.14,0.77L146.34,28.71
		 M155.81,3.05c0-0.05,0-0.5-0.59-0.5c-0.68,0-5,0.41-5.78,0.5c-0.36,0.05-0.64,0.27-0.64,0.86c0,0.55,0.41,0.55,1.09,0.55
		c2.19,0,2.27,0.32,2.27,0.77l-0.13,0.91l-2.73,10.78c-0.82-1.68-2.14-2.91-4.18-2.91c-5.32,0-10.96,6.69-10.96,13.33
		c0,4.28,2.5,7.28,6.05,7.28c0.91,0,3.18-0.18,5.91-3.41c0.36,1.91,1.96,3.41,4.14,3.41c1.59,0,2.64-1.05,3.37-2.5
		c0.77-1.64,1.37-4.41,1.37-4.5c0-0.46-0.41-0.46-0.55-0.46c-0.46,0-0.5,0.18-0.64,0.82c-0.77,2.96-1.59,5.64-3.46,5.64
		c-1.23,0-1.36-1.18-1.36-2.09c0-1.09,0.09-1.41,0.27-2.18L155.81,3.05z"/>
	<path class="st10" d="M169.04,22.75c0-3.55-0.5-9.05-3-14.19c-2.73-5.6-6.64-8.55-7.1-8.55c-0.27,0-0.46,0.18-0.46,0.46
		c0,0.14,0,0.23,0.86,1.05c4.46,4.5,7.05,11.74,7.05,21.24c0,7.78-1.68,15.79-7.32,21.52c-0.59,0.54-0.59,0.64-0.59,0.77
		c0,0.27,0.18,0.46,0.46,0.46c0.46,0,4.55-3.09,7.23-8.87C168.49,31.62,169.04,26.57,169.04,22.75"/>
	<path d="M205.77,25.2c-1.09,2.46-4.14,8.1-9.55,8.1c-4.41,0-6.51-4.82-6.51-8.96c0-4.5,2.55-8.46,6.32-8.46
		c3.59,0,6,3.55,7.55,5.91C204.04,22.56,205.27,24.43,205.77,25.2 M219.01,32.66c-0.18,0-0.91,0.09-1.04,0.09
		c-3.59,0-6.01-3.55-7.55-5.91c-0.45-0.77-1.68-2.64-2.18-3.41c1.09-2.46,4.14-8.1,9.55-8.1c0.32,0,0.73,0,1.23,0.14
		c0-1.18-0.05-1.23-0.14-1.32c-0.32-0.09-1-0.14-1.41-0.14c-5.78,0-9.14,5.55-10.24,7.82c-1.82-2.77-2.46-3.78-4.14-5.19
		c-2.77-2.41-5.28-2.64-6.41-2.64c-5.05,0-7.96,5.09-7.96,10.33c0,5.1,2.82,10.28,7.83,10.28c5.78,0,9.14-5.55,10.23-7.83
		c1.82,2.77,2.46,3.78,4.14,5.19c2.77,2.41,5.28,2.64,6.41,2.64c0.55,0,1.27-0.09,1.68-0.18V32.66z"/>
	<path class="st2" d="M251.23,6.19c0.41-1.59,0.5-1.73,2.46-1.73h4.37c3.78,0,6.19,1.23,6.19,4.37c0,1.78-0.91,5.69-2.68,7.33
		c-2.27,2.05-5,2.41-7.01,2.41h-6.41L251.23,6.19 M247.96,19.74h7.74c6.46,0,12.78-4.73,12.78-9.83c0-3.5-3-6.87-8.96-6.87h-14.74
		c-0.87,0-1.37,0-1.37,0.86c0,0.55,0.41,0.55,1.32,0.55c0.59,0,1.41,0.05,1.96,0.09c0.73,0.09,1,0.23,1,0.73
		c0,0.18-0.05,0.32-0.18,0.86l-6.1,24.43c-0.45,1.78-0.55,2.14-4.14,2.14c-0.77,0-1.27,0-1.27,0.86c0,0.55,0.55,0.55,0.68,0.55
		c1.27,0,4.5-0.14,5.78-0.14c0.96,0,1.96,0.05,2.91,0.05c1,0,2,0.09,2.96,0.09c0.32,0,0.91,0,0.91-0.91c0-0.5-0.41-0.5-1.28-0.5
		c-1.68,0-2.96,0-2.96-0.82c0-0.27,0.09-0.5,0.14-0.77L247.96,19.74z"/>
	<path class="st2" d="M284.7,45.04c0-0.14,0-0.23-0.77-1c-5.69-5.73-7.14-14.33-7.14-21.29c0-7.92,1.73-15.83,7.32-21.52
		c0.59-0.55,0.59-0.64,0.59-0.77c0-0.32-0.18-0.46-0.46-0.46c-0.45,0-4.55,3.09-7.23,8.87c-2.32,5.01-2.87,10.05-2.87,13.88
		c0,3.55,0.5,9.05,3,14.19c2.73,5.6,6.64,8.55,7.09,8.55C284.52,45.49,284.7,45.35,284.7,45.04"/>
	<path class="st2" d="M301.38,28.71c-0.23,0.82-0.23,0.91-0.91,1.68c-2,2.5-3.87,3.23-5.14,3.23c-2.27,0-2.91-2.5-2.91-4.28
		c0-2.28,1.46-7.87,2.5-9.96c1.41-2.68,3.46-4.37,5.28-4.37c2.96,0,3.59,3.73,3.59,4c0,0.27-0.09,0.55-0.14,0.77L301.38,28.71
		 M310.85,3.05c0-0.05,0-0.5-0.59-0.5c-0.68,0-5,0.41-5.78,0.5c-0.36,0.05-0.63,0.27-0.63,0.86c0,0.55,0.41,0.55,1.09,0.55
		c2.19,0,2.27,0.32,2.27,0.77l-0.13,0.91l-2.73,10.78c-0.82-1.68-2.14-2.91-4.18-2.91c-5.32,0-10.96,6.69-10.96,13.33
		c0,4.28,2.5,7.28,6.05,7.28c0.91,0,3.18-0.18,5.91-3.41c0.36,1.91,1.96,3.41,4.14,3.41c1.59,0,2.64-1.05,3.37-2.5
		c0.77-1.64,1.37-4.41,1.37-4.5c0-0.46-0.41-0.46-0.55-0.46c-0.46,0-0.5,0.18-0.64,0.82c-0.77,2.96-1.59,5.64-3.46,5.64
		c-1.23,0-1.36-1.18-1.36-2.09c0-1.09,0.09-1.41,0.27-2.18L310.85,3.05z"/>
	<path class="st2" d="M318.17,1.64c0-0.82,0-1.64-0.91-1.64c-0.91,0-0.91,0.82-0.91,1.64v42.22c0,0.82,0,1.64,0.91,1.64
		c0.91,0,0.91-0.82,0.91-1.64V1.64"/>
	<path class="st2" d="M339.43,19.06c-0.5,2.09-1.46,5.96-3.18,9.23c-1.59,3.09-3.32,5.32-5.28,5.32c-1.5,0-2.46-1.32-2.46-5.55
		c0-1.91,0.27-4.55,1.46-9.01H339.43 M330.33,17.6c0.77-2.91,1.68-6.55,3.5-9.78c1.23-2.23,2.91-4.78,4.96-4.78
		c2.23,0,2.5,2.91,2.5,5.5c0,2.23-0.36,4.55-1.45,9.05H330.33z M344.3,11.37c0-3-0.82-9.32-5.46-9.32
		c-6.32,0-13.33,12.83-13.33,23.25c0,4.28,1.32,9.33,5.46,9.33C337.38,34.62,344.3,21.56,344.3,11.37z"/>
	<path class="st2" d="M359.3,22.75c0-3.55-0.5-9.05-3-14.19c-2.73-5.6-6.64-8.55-7.1-8.55c-0.27,0-0.45,0.18-0.45,0.46
		c0,0.14,0,0.23,0.87,1.05c4.46,4.5,7.05,11.74,7.05,21.24c0,7.78-1.68,15.79-7.33,21.52c-0.59,0.54-0.59,0.64-0.59,0.77
		c0,0.27,0.18,0.46,0.45,0.46c0.46,0,4.55-3.09,7.23-8.87C358.75,31.62,359.3,26.57,359.3,22.75"/>
	<path class="st6" d="M380.94,6.19c0.41-1.59,0.5-1.73,2.46-1.73h4.37c3.78,0,6.19,1.23,6.19,4.37c0,1.78-0.91,5.69-2.68,7.33
		c-2.27,2.05-5,2.41-7.01,2.41h-6.41L380.94,6.19 M377.66,19.74h7.74c6.46,0,12.78-4.73,12.78-9.83c0-3.5-3-6.87-8.96-6.87h-14.74
		c-0.87,0-1.37,0-1.37,0.86c0,0.55,0.41,0.55,1.32,0.55c0.59,0,1.41,0.05,1.96,0.09c0.73,0.09,1,0.23,1,0.73
		c0,0.18-0.05,0.32-0.18,0.86l-6.1,24.43c-0.45,1.78-0.55,2.14-4.14,2.14c-0.77,0-1.27,0-1.27,0.86c0,0.55,0.55,0.55,0.68,0.55
		c1.27,0,4.5-0.14,5.78-0.14c0.96,0,1.96,0.05,2.91,0.05c1,0,2,0.09,2.96,0.09c0.32,0,0.91,0,0.91-0.91c0-0.5-0.41-0.5-1.28-0.5
		c-1.68,0-2.96,0-2.96-0.82c0-0.27,0.09-0.5,0.14-0.77L377.66,19.74z"/>
	<path class="st6" d="M414.41,45.04c0-0.14,0-0.23-0.77-1c-5.69-5.73-7.14-14.33-7.14-21.29c0-7.92,1.73-15.83,7.32-21.52
		c0.59-0.55,0.59-0.64,0.59-0.77c0-0.32-0.18-0.46-0.46-0.46c-0.45,0-4.55,3.09-7.23,8.87c-2.32,5.01-2.87,10.05-2.87,13.88
		c0,3.55,0.5,9.05,3,14.19c2.73,5.6,6.64,8.55,7.09,8.55C414.22,45.49,414.41,45.35,414.41,45.04"/>
	<path class="st6" d="M432.79,19.06c-0.5,2.09-1.46,5.96-3.18,9.23c-1.59,3.09-3.32,5.32-5.28,5.32c-1.5,0-2.46-1.32-2.46-5.55
		c0-1.91,0.27-4.55,1.46-9.01H432.79 M423.69,17.6c0.77-2.91,1.68-6.55,3.5-9.78c1.23-2.23,2.91-4.78,4.96-4.78
		c2.23,0,2.5,2.91,2.5,5.5c0,2.23-0.36,4.55-1.45,9.05H423.69z M437.65,11.37c0-3-0.82-9.32-5.46-9.32
		c-6.32,0-13.33,12.83-13.33,23.25c0,4.28,1.32,9.33,5.46,9.33C430.74,34.62,437.65,21.56,437.65,11.37z"/>
	<path class="st6" d="M452.78,22.75c0-3.55-0.5-9.05-3-14.19c-2.73-5.6-6.64-8.55-7.1-8.55c-0.27,0-0.45,0.18-0.45,0.46
		c0,0.14,0,0.23,0.87,1.05c4.46,4.5,7.05,11.74,7.05,21.24c0,7.78-1.68,15.79-7.33,21.52c-0.59,0.54-0.59,0.64-0.59,0.77
		c0,0.27,0.18,0.46,0.45,0.46c0.46,0,4.55-3.09,7.23-8.87C452.23,31.62,452.78,26.57,452.78,22.75"/>
</g>
</svg>
