<?xml version="1.0" encoding="utf-8"?>
<!-- Generator: Adobe Illustrator 23.0.3, SVG Export Plug-In . SVG Version: 6.00 Build 0)  -->
<svg version="1.1" id="Layer_1" xmlns="http://www.w3.org/2000/svg" xmlns:xlink="http://www.w3.org/1999/xlink" x="0px" y="0px"
	 viewBox="0 0 1152 648" style="enable-background:new 0 0 1152 648;" xml:space="preserve">
<style type="text/css">
	.st0{fill:#909090;}
	.st1{fill:#FFFFFF;stroke:#E36F1E;stroke-width:3;stroke-miterlimit:10;}
	.st2{fill:none;}
	.st3{font-family:'MyriadPro-Regular';}
	.st4{font-size:18px;}
	.st5{fill:#FFFFFF;stroke:#808080;stroke-width:3;stroke-miterlimit:10;}
	.st6{fill:none;stroke:#808080;stroke-width:3;stroke-miterlimit:10;}
	.st7{clip-path:url(#SVGID_2_);}
	.st8{clip-path:url(#SVGID_4_);}
	.st9{font-family:'CMMI10';}
	.st10{font-size:9.1249px;}
	.st11{font-family:'CMR10';}
	.st12{letter-spacing:1;}
	.st13{font-family:'CMMI7';}
	.st14{font-size:6.3874px;}
	.st15{letter-spacing:2;}
	.st16{font-family:'CMSY10';}
</style>
<g>
	<g>
		<g>
			<polygon class="st0" points="648.91,193.5 648.91,230.71 637.35,230.71 650.5,253.5 663.65,230.71 652.09,230.71 652.09,193.5 
							"/>
		</g>
	</g>
</g>
<rect x="547.5" y="136.5" class="st1" width="206" height="57"/>
<rect x="565.43" y="149.21" class="st2" width="171.57" height="37.79"/>
<text transform="matrix(1 0 0 1 584.9102 161.9927)"><tspan x="0" y="0" class="st3 st4">Generate random</tspan><tspan x="21.4" y="21.6" class="st3 st4">momentum</tspan></text>
<rect x="547.5" y="253.5" class="st1" width="206" height="70"/>
<rect x="564.43" y="260" class="st2" width="171.57" height="65.7"/>
<text transform="matrix(1 0 0 1 581.6699 272.7798)"><tspan x="0" y="0" class="st3 st4">Solve Hamiltonian </tspan><tspan x="-11.23" y="21.6" class="st3 st4">Dynamics for  n time</tspan><tspan x="142.79" y="21.6" class="st3 st4">-</tspan><tspan x="48.81" y="43.2" class="st3 st4">steps</tspan></text>
<rect x="547.5" y="383.5" class="st1" width="206" height="87"/>
<rect x="565.43" y="403.21" class="st2" width="171.57" height="17.79"/>
<text transform="matrix(1 0 0 1 576.1001 415.9927)" class="st3 st4">Metropolis Criterion</text>
<path class="st5" d="M1050.5,296.5"/>
<rect x="246.5" y="392.5" class="st1" width="206" height="70"/>
<rect x="264.43" y="408.39" class="st2" width="171.57" height="40.61"/>
<text transform="matrix(1 0 0 1 295.2773 421.1724)"><tspan x="0" y="0" class="st3 st4">Update step in</tspan><tspan x="4.55" y="21.6" class="st3 st4">Markov chain</tspan></text>
<path class="st6" d="M622.5,531.5"/>
<rect x="778.86" y="406.35" class="st2" width="94.6" height="15.77"/>
<text transform="matrix(1 0 0 1 778.8574 419.1299)" class="st3 st4">Reject</text>
<rect x="479.86" y="406.35" class="st2" width="94.6" height="15.77"/>
<text transform="matrix(1 0 0 1 479.8574 419.1299)" class="st3 st4">Accept</text>
<g>
	<g>
		<g>
			<polygon class="st0" points="648.91,323.5 648.91,360.72 637.35,360.72 650.5,383.5 663.65,360.72 652.09,360.72 652.09,323.5 
							"/>
		</g>
	</g>
</g>
<line class="st6" x1="753.5" y1="427.5" x2="861.5" y2="427.5"/>
<line class="st6" x1="861.5" y1="156.5" x2="861.5" y2="427.5"/>
<g>
	<g>
		<g>
			<polygon class="st0" points="861.5,154.91 776.28,154.91 776.28,143.35 753.5,156.5 776.28,169.65 776.28,158.09 861.5,158.09 
							"/>
		</g>
	</g>
</g>
<g>
	<g>
		<g>
			<polygon class="st0" points="547.5,423.91 475.28,423.91 475.28,412.35 452.5,425.5 475.28,438.65 475.28,427.09 547.5,427.09 
							"/>
		</g>
	</g>
</g>
<line class="st6" x1="350.5" y1="392.5" x2="350.5" y2="156.5"/>
<g>
	<g>
		<g>
			<polygon class="st0" points="350.5,158.09 524.72,158.09 524.72,169.65 547.5,156.5 524.72,143.35 524.72,154.91 350.5,154.91 
							"/>
		</g>
	</g>
</g>
<g>
	<g>
		<defs>
			<rect id="SVGID_1_" x="554" y="439" width="187" height="9.41"/>
		</defs>
		<clipPath id="SVGID_2_">
			<use xlink:href="#SVGID_1_"  style="overflow:visible;"/>
		</clipPath>
		<g class="st7">
			<defs>
				<rect id="SVGID_3_" x="554" y="439" width="187" height="9.41"/>
			</defs>
			<clipPath id="SVGID_4_">
				<use xlink:href="#SVGID_3_"  style="overflow:visible;"/>
			</clipPath>
			<g class="st8">
				<text transform="matrix(1 0 0 1 553.792 446.0342)" class="st9 st10">ρ</text>
			</g>
			<g class="st8">
				<text transform="matrix(1 0 0 1 560.0303 446.0342)" class="st11 st10">(</text>
			</g>
			<g class="st8">
				<text transform="matrix(1 0 0 1 563.5791 446.0342)"><tspan x="0" y="0" class="st9 st10">q</tspan><tspan x="5.47" y="0" class="st9 st10 st12">,</tspan><tspan x="8.88" y="0" class="st9 st10">q</tspan></text>
			</g>
			<g class="st8">
				<text transform="matrix(1 0 0 1 576.1094 447.4033)" class="st13 st14">n</text>
			</g>
			<g class="st8">
				<text transform="matrix(1 0 0 1 581.0762 446.0342)"><tspan x="0" y="0" class="st11 st10 st15">)=</tspan><tspan x="13.1" y="0" class="st11 st10">min</tspan></text>
			</g>
			<g class="st8">
				<text transform="matrix(1 0 0 1 616.5625 446.0342)" class="st16 st10">{</text>
			</g>
			<g class="st8">
				<text transform="matrix(1 0 0 1 621.125 446.0342)" class="st11 st10">1</text>
			</g>
			<g class="st8">
				<text transform="matrix(1 0 0 1 625.6865 446.0342)" class="st9 st10">,</text>
			</g>
			<g class="st8">
				<text transform="matrix(1 0 0 1 631.2627 446.0342)" class="st11 st10">exp(</text>
			</g>
			<g class="st8">
				<text transform="matrix(1 0 0 1 648.7529 446.0342)" class="st16 st10">−</text>
			</g>
			<g class="st8">
				<text transform="matrix(1 0 0 1 655.8496 446.0342)" class="st9 st10">H</text>
			</g>
			<g class="st8">
				<text transform="matrix(1 0 0 1 664.1768 446.0342)" class="st11 st10">(</text>
			</g>
			<g class="st8">
				<text transform="matrix(1 0 0 1 667.7246 446.0342)"><tspan x="0" y="0" class="st9 st10">q</tspan><tspan x="5.47" y="0" class="st9 st10 st12">,</tspan><tspan x="8.88" y="0" class="st9 st10">p</tspan></text>
			</g>
			<g class="st8">
				<text transform="matrix(1 0 0 1 680.7734 446.0342)"><tspan x="0" y="0" class="st11 st10 st15">)</tspan><tspan x="4.62" y="0" class="st11 st10">+</tspan></text>
			</g>
			<g class="st8">
				<text transform="matrix(1 0 0 1 695.4736 446.0342)" class="st9 st10">H</text>
			</g>
			<g class="st8">
				<text transform="matrix(1 0 0 1 703.7998 446.0342)" class="st11 st10">(</text>
			</g>
			<g class="st8">
				<text transform="matrix(1 0 0 1 707.3486 446.0342)" class="st9 st10">q</text>
			</g>
			<g class="st8">
				<text transform="matrix(1 0 0 1 711.4219 447.4033)" class="st13 st14">n</text>
			</g>
			<g class="st8">
				<text transform="matrix(1 0 0 1 716.3887 446.0342)"><tspan x="0" y="0" class="st9 st10 st12">,</tspan><tspan x="3.41" y="0" class="st9 st10">p</tspan></text>
			</g>
			<g class="st8">
				<text transform="matrix(1 0 0 1 725.0352 447.4033)" class="st13 st14">n</text>
			</g>
			<g class="st8">
				<text transform="matrix(1 0 0 1 730.0029 446.0342)" class="st11 st10">))</text>
			</g>
			<g class="st8">
				<text transform="matrix(1 0 0 1 737.0996 446.0342)" class="st16 st10">}</text>
			</g>
		</g>
	</g>
</g>
</svg>
