<?xml version="1.0" encoding="utf-8"?>
<!-- Generator: Adobe Illustrator 23.0.3, SVG Export Plug-In . SVG Version: 6.00 Build 0)  -->
<svg version="1.1" id="Layer_1" xmlns="http://www.w3.org/2000/svg" xmlns:xlink="http://www.w3.org/1999/xlink" x="0px" y="0px"
	 viewBox="0 0 629 344" style="enable-background:new 0 0 629 344;" xml:space="preserve">
<style type="text/css">
	.st0{fill:#909090;}
	.st1{fill:#FFFFFF;stroke:#E36F1E;stroke-width:3;stroke-miterlimit:10;}
	.st2{fill:none;}
	.st3{font-family:'MyriadPro-Regular';}
	.st4{font-size:18px;}
	.st5{fill:#FFFFFF;stroke:#808080;stroke-width:3;stroke-miterlimit:10;}
	.st6{fill:none;stroke:#808080;stroke-width:3;stroke-miterlimit:10;}
	.st7{clip-path:url(#SVGID_2_);}
	.st8{clip-path:url(#SVGID_4_);}
	.st9{font-family:'CMMI10';}
	.st10{font-size:9.1249px;}
	.st11{font-family:'CMR10';}
	.st12{letter-spacing:1;}
	.st13{font-family:'CMMI7';}
	.st14{font-size:6.3874px;}
	.st15{letter-spacing:2;}
	.st16{font-family:'CMSY10';}
</style>
<g>
	<g>
		<g>
			<polygon class="st0" points="409.91,62.5 409.91,99.71 398.35,99.71 411.5,122.5 424.65,99.71 413.09,99.71 413.09,62.5 			"/>
		</g>
	</g>
</g>
<rect x="308.5" y="5.5" class="st1" width="206" height="57"/>
<rect x="326.43" y="18.21" class="st2" width="171.57" height="37.79"/>
<text transform="matrix(1 0 0 1 345.9102 30.9927)"><tspan x="0" y="0" class="st3 st4">Generate random</tspan><tspan x="21.4" y="21.6" class="st3 st4">momentum</tspan></text>
<rect x="308.5" y="122.5" class="st1" width="206" height="70"/>
<rect x="325.43" y="129" class="st2" width="171.57" height="65.7"/>
<text transform="matrix(1 0 0 1 342.6699 141.7798)"><tspan x="0" y="0" class="st3 st4">Solve Hamiltonian </tspan><tspan x="-11.23" y="21.6" class="st3 st4">Dynamics for  n time</tspan><tspan x="142.79" y="21.6" class="st3 st4">-</tspan><tspan x="48.81" y="43.2" class="st3 st4">steps</tspan></text>
<rect x="308.5" y="252.5" class="st1" width="206" height="87"/>
<rect x="326.43" y="272.21" class="st2" width="171.57" height="17.79"/>
<text transform="matrix(1 0 0 1 337.1001 284.9927)" class="st3 st4">Metropolis Criterion</text>
<path class="st5" d="M811.5,165.5"/>
<rect x="7.5" y="261.5" class="st1" width="206" height="70"/>
<rect x="25.43" y="277.39" class="st2" width="171.57" height="40.61"/>
<text transform="matrix(1 0 0 1 56.2773 290.1724)"><tspan x="0" y="0" class="st3 st4">Update step in</tspan><tspan x="4.55" y="21.6" class="st3 st4">Markov chain</tspan></text>
<path class="st6" d="M383.5,400.5"/>
<rect x="539.86" y="275.35" class="st2" width="94.6" height="15.77"/>
<text transform="matrix(1 0 0 1 539.8574 288.1299)" class="st3 st4">Reject</text>
<rect x="240.86" y="275.35" class="st2" width="94.6" height="15.77"/>
<text transform="matrix(1 0 0 1 240.8574 288.1299)" class="st3 st4">Accept</text>
<g>
	<g>
		<g>
			<polygon class="st0" points="409.91,192.5 409.91,229.72 398.35,229.72 411.5,252.5 424.65,229.72 413.09,229.72 413.09,192.5 
							"/>
		</g>
	</g>
</g>
<line class="st6" x1="514.5" y1="296.5" x2="622.5" y2="296.5"/>
<line class="st6" x1="622.5" y1="25.5" x2="622.5" y2="296.5"/>
<g>
	<g>
		<g>
			<polygon class="st0" points="622.5,23.91 537.28,23.91 537.28,12.35 514.5,25.5 537.28,38.65 537.28,27.09 622.5,27.09 			"/>
		</g>
	</g>
</g>
<g>
	<g>
		<g>
			<polygon class="st0" points="308.5,292.91 236.28,292.91 236.28,281.35 213.5,294.5 236.28,307.65 236.28,296.09 308.5,296.09 
							"/>
		</g>
	</g>
</g>
<line class="st6" x1="111.5" y1="261.5" x2="111.5" y2="25.5"/>
<g>
	<g>
		<g>
			<polygon class="st0" points="111.5,27.09 285.72,27.09 285.72,38.65 308.5,25.5 285.72,12.35 285.72,23.91 111.5,23.91 			"/>
		</g>
	</g>
</g>
<g>
	<g>
		<defs>
			<rect id="SVGID_1_" x="315" y="308" width="187" height="9.41"/>
		</defs>
		<clipPath id="SVGID_2_">
			<use xlink:href="#SVGID_1_"  style="overflow:visible;"/>
		</clipPath>
		<g class="st7">
			<defs>
				<rect id="SVGID_3_" x="315" y="308" width="187" height="9.41"/>
			</defs>
			<clipPath id="SVGID_4_">
				<use xlink:href="#SVGID_3_"  style="overflow:visible;"/>
			</clipPath>
			<g class="st8">
				<text transform="matrix(1 0 0 1 314.792 315.0342)" class="st9 st10">ρ</text>
			</g>
			<g class="st8">
				<text transform="matrix(1 0 0 1 321.0303 315.0342)" class="st11 st10">(</text>
			</g>
			<g class="st8">
				<text transform="matrix(1 0 0 1 324.5791 315.0342)"><tspan x="0" y="0" class="st9 st10">q</tspan><tspan x="5.47" y="0" class="st9 st10 st12">,</tspan><tspan x="8.88" y="0" class="st9 st10">q</tspan></text>
			</g>
			<g class="st8">
				<text transform="matrix(1 0 0 1 337.1094 316.4033)" class="st13 st14">n</text>
			</g>
			<g class="st8">
				<text transform="matrix(1 0 0 1 342.0762 315.0342)"><tspan x="0" y="0" class="st11 st10 st15">)=</tspan><tspan x="13.1" y="0" class="st11 st10">min</tspan></text>
			</g>
			<g class="st8">
				<text transform="matrix(1 0 0 1 377.5625 315.0342)" class="st16 st10">{</text>
			</g>
			<g class="st8">
				<text transform="matrix(1 0 0 1 382.125 315.0342)" class="st11 st10">1</text>
			</g>
			<g class="st8">
				<text transform="matrix(1 0 0 1 386.6865 315.0342)" class="st9 st10">,</text>
			</g>
			<g class="st8">
				<text transform="matrix(1 0 0 1 392.2627 315.0342)" class="st11 st10">exp(</text>
			</g>
			<g class="st8">
				<text transform="matrix(1 0 0 1 409.7529 315.0342)" class="st16 st10">−</text>
			</g>
			<g class="st8">
				<text transform="matrix(1 0 0 1 416.8496 315.0342)" class="st9 st10">H</text>
			</g>
			<g class="st8">
				<text transform="matrix(1 0 0 1 425.1768 315.0342)" class="st11 st10">(</text>
			</g>
			<g class="st8">
				<text transform="matrix(1 0 0 1 428.7246 315.0342)"><tspan x="0" y="0" class="st9 st10">q</tspan><tspan x="5.47" y="0" class="st9 st10 st12">,</tspan><tspan x="8.88" y="0" class="st9 st10">p</tspan></text>
			</g>
			<g class="st8">
				<text transform="matrix(1 0 0 1 441.7734 315.0342)"><tspan x="0" y="0" class="st11 st10 st15">)</tspan><tspan x="4.62" y="0" class="st11 st10">+</tspan></text>
			</g>
			<g class="st8">
				<text transform="matrix(1 0 0 1 456.4736 315.0342)" class="st9 st10">H</text>
			</g>
			<g class="st8">
				<text transform="matrix(1 0 0 1 464.7998 315.0342)" class="st11 st10">(</text>
			</g>
			<g class="st8">
				<text transform="matrix(1 0 0 1 468.3486 315.0342)" class="st9 st10">q</text>
			</g>
			<g class="st8">
				<text transform="matrix(1 0 0 1 472.4219 316.4033)" class="st13 st14">n</text>
			</g>
			<g class="st8">
				<text transform="matrix(1 0 0 1 477.3887 315.0342)"><tspan x="0" y="0" class="st9 st10 st12">,</tspan><tspan x="3.41" y="0" class="st9 st10">p</tspan></text>
			</g>
			<g class="st8">
				<text transform="matrix(1 0 0 1 486.0352 316.4033)" class="st13 st14">n</text>
			</g>
			<g class="st8">
				<text transform="matrix(1 0 0 1 491.0029 315.0342)" class="st11 st10">))</text>
			</g>
			<g class="st8">
				<text transform="matrix(1 0 0 1 498.0996 315.0342)" class="st16 st10">}</text>
			</g>
		</g>
	</g>
</g>
</svg>
