<?xml version="1.0" encoding="utf-8"?>
<!-- Generator: Adobe Illustrator 23.0.3, SVG Export Plug-In . SVG Version: 6.00 Build 0)  -->
<svg version="1.1" id="Layer_1" xmlns="http://www.w3.org/2000/svg" xmlns:xlink="http://www.w3.org/1999/xlink" x="0px" y="0px"
	 viewBox="0 0 623.5 237.5" style="enable-background:new 0 0 623.5 237.5;" xml:space="preserve">
<style type="text/css">
	.st0{fill:#909090;}
	.st1{fill:#FFFFFF;stroke:#E36F1E;stroke-width:3;stroke-miterlimit:10;}
	.st2{fill:none;}
	.st3{font-family:'MyriadPro-Regular';}
	.st4{font-size:18px;}
	.st5{fill:#FFFFFF;stroke:#808080;stroke-width:3;stroke-miterlimit:10;}
	.st6{fill:none;stroke:#808080;stroke-width:3;stroke-miterlimit:10;}
	.st7{clip-path:url(#SVGID_2_);}
	.st8{clip-path:url(#SVGID_2_);fill:none;stroke:#000000;stroke-width:1.4328;stroke-miterlimit:10;}
	.st9{opacity:0;clip-path:url(#SVGID_2_);fill:none;stroke:#000000;stroke-width:9.999999e-07;stroke-miterlimit:10;}
	.st10{opacity:0;fill:none;stroke:#000000;stroke-width:1.000000e-06;stroke-miterlimit:10;}
</style>
<g>
	<g>
		<g>
			<path class="st0" d="M508.5,191.09h93.84h13.02H617c0.5-0.05,1.32,0.23,1.08-0.56v-3.29v-6.57v-23.92v-46.92V62.9V39.44V26.88
				v-6.57c-0.01-0.13,0.02-0.29-0.02-0.39h-0.41h-0.82h-1.64h-3.29h-80.62V8.35L508.5,21.5l22.78,13.15V23.09h78.78h2.58h1.29h0.64
				h0.32c0.03,0.08,0.01,0.21,0.01,0.31v5.16v10.89V62.9v46.92v46.92v22.99v5.16v2.58c0.19,0.62-0.46,0.4-0.85,0.44h-1.29h-10.44
				H508.5V191.09z"/>
		</g>
	</g>
</g>
<g>
	<g>
		<g>
			<polygon class="st0" points="302.5,185.91 230.28,185.91 230.28,174.35 207.5,187.5 230.28,200.65 230.28,189.09 302.5,189.09 
							"/>
		</g>
	</g>
</g>
<g>
	<g>
		<g>
			<path class="st0" d="M107.09,154.5V85.42V50.89V33.74v-7.59v-1.9V23.3c0.01-0.07-0.02-0.18,0.02-0.22h0.24h0.47h3.8H248.8h30.91
				v11.57L302.5,21.5L279.72,8.35v11.57H248.8H109.69h-4.84h-0.6h-0.3c-0.05,0.05-0.02,0.19-0.03,0.28v1.21v2.42v9.68v17.39v34.54
				v69.08H107.09z"/>
		</g>
	</g>
</g>
<g>
	<g>
		<g>
			<polygon class="st0" points="403.91,59 403.91,122.72 392.35,122.72 405.5,145.5 418.65,122.72 407.09,122.72 407.09,59 			"/>
		</g>
	</g>
</g>
<rect x="302.5" y="1.5" class="st1" width="206" height="57"/>
<rect x="320.43" y="21.21" class="st2" width="171.57" height="17.79"/>
<text transform="matrix(1 0 0 1 321.4248 33.9927)" class="st3 st4">Random Walk Sampler</text>
<rect x="302.5" y="145.5" class="st1" width="206" height="87"/>
<rect x="320.43" y="165.21" class="st2" width="171.57" height="17.79"/>
<text transform="matrix(1 0 0 1 331.1001 177.9927)" class="st3 st4">Metropolis Criterion</text>
<path class="st5" d="M805.5,161.5"/>
<rect x="1.5" y="154.5" class="st1" width="206" height="70"/>
<rect x="19.43" y="170.39" class="st2" width="171.57" height="40.61"/>
<text transform="matrix(1 0 0 1 50.2773 183.1724)"><tspan x="0" y="0" class="st3 st4">Update step in</tspan><tspan x="4.55" y="21.6" class="st3 st4">Markov chain</tspan></text>
<path class="st6" d="M377.5,396.5"/>
<rect x="533.86" y="168.35" class="st2" width="76.6" height="15.77"/>
<text transform="matrix(1 0 0 1 533.8574 181.1299)" class="st3 st4">Reject</text>
<rect x="234.86" y="168.35" class="st2" width="94.6" height="15.77"/>
<text transform="matrix(1 0 0 1 234.8574 181.1299)" class="st3 st4">Accept</text>
<g>
	<defs>
		<rect id="SVGID_1_" x="311.66" y="183.59" width="189.34" height="43.35"/>
	</defs>
	<clipPath id="SVGID_2_">
		<use xlink:href="#SVGID_1_"  style="overflow:visible;"/>
	</clipPath>
	<path class="st7" d="M316.02,209.6c-1.25,0-1.54-1.43-1.54-1.59c0-0.07,0.09-0.43,0.14-0.66c0.5-2,0.68-2.65,1.07-3.36
		c0.77-1.31,1.66-1.7,2.22-1.7c0.66,0,1.23,0.52,1.23,1.75c0,0.98-0.52,2.99-1,3.87C317.56,209.03,316.71,209.6,316.02,209.6
		 M312.05,212.89c-0.05,0.21-0.05,0.25-0.05,0.29c0,0.27,0.2,0.48,0.5,0.48c0.38,0,0.59-0.32,0.63-0.38
		c0.09-0.16,0.66-2.56,1.15-4.49c0.36,0.72,0.93,1.2,1.77,1.2c2.09,0,4.4-2.52,4.4-5.19c0-1.9-1.18-2.92-2.49-2.92
		c-1.74,0-3.61,1.79-4.15,3.97L312.05,212.89z"/>
	<path class="st7" d="M326.6,214.09c0-0.05,0-0.09-0.3-0.39c-2.24-2.25-2.81-5.64-2.81-8.37c0-3.11,0.68-6.23,2.88-8.46
		c0.23-0.21,0.23-0.25,0.23-0.3c0-0.13-0.07-0.18-0.18-0.18c-0.18,0-1.79,1.22-2.84,3.49c-0.91,1.97-1.13,3.95-1.13,5.46
		c0,1.4,0.2,3.56,1.18,5.58c1.07,2.2,2.61,3.36,2.79,3.36C326.53,214.27,326.6,214.21,326.6,214.09"/>
	<path class="st7" d="M333.88,203.87c-0.2,0.82-0.57,2.34-1.25,3.63c-0.63,1.22-1.31,2.09-2.08,2.09c-0.59,0-0.97-0.52-0.97-2.18
		c0-0.75,0.11-1.79,0.57-3.54H333.88 M330.3,203.3c0.3-1.15,0.66-2.58,1.38-3.85c0.48-0.88,1.15-1.88,1.95-1.88
		c0.88,0,0.98,1.15,0.98,2.17c0,0.88-0.14,1.79-0.57,3.56H330.3z M335.8,200.85c0-1.18-0.32-3.67-2.15-3.67
		c-2.49,0-5.24,5.05-5.24,9.14c0,1.68,0.52,3.67,2.15,3.67C333.08,209.99,335.8,204.86,335.8,200.85z"/>
	<path class="st7" d="M340.16,209.78c0-1.18-0.45-1.88-1.15-1.88c-0.59,0-0.95,0.45-0.95,0.95c0,0.48,0.36,0.95,0.95,0.95
		c0.21,0,0.45-0.07,0.63-0.23c0.05-0.04,0.07-0.05,0.09-0.05c0.02,0,0.04,0.02,0.04,0.27c0,1.32-0.63,2.4-1.22,2.99
		c-0.2,0.2-0.2,0.23-0.2,0.29c0,0.13,0.09,0.2,0.18,0.2C338.73,213.25,340.16,211.87,340.16,209.78"/>
	<path class="st7" d="M350.67,203.87c-0.2,0.82-0.57,2.34-1.25,3.63c-0.63,1.22-1.31,2.09-2.08,2.09c-0.59,0-0.97-0.52-0.97-2.18
		c0-0.75,0.11-1.79,0.57-3.54H350.67 M347.1,203.3c0.3-1.15,0.66-2.58,1.38-3.85c0.48-0.88,1.15-1.88,1.95-1.88
		c0.88,0,0.98,1.15,0.98,2.17c0,0.88-0.14,1.79-0.57,3.56H347.1z M352.59,200.85c0-1.18-0.32-3.67-2.15-3.67
		c-2.49,0-5.24,5.05-5.24,9.14c0,1.68,0.52,3.67,2.15,3.67C349.87,209.99,352.59,204.86,352.59,200.85z"/>
	<path class="st7" d="M354.39,211.7c-0.05,0.16-0.12,0.47-0.12,0.51c0,0.27,0.22,0.4,0.42,0.4c0.22,0,0.42-0.16,0.49-0.27
		c0.06-0.11,0.16-0.51,0.22-0.77c0.06-0.24,0.2-0.81,0.27-1.12c0.07-0.27,0.15-0.55,0.21-0.84c0.14-0.51,0.16-0.61,0.52-1.12
		c0.35-0.5,0.94-1.15,1.87-1.15c0.72,0,0.74,0.64,0.74,0.87c0,0.75-0.54,2.14-0.74,2.66c-0.14,0.35-0.19,0.46-0.19,0.67
		c0,0.66,0.55,1.07,1.19,1.07c1.25,0,1.8-1.72,1.8-1.91c0-0.16-0.16-0.16-0.2-0.16c-0.17,0-0.19,0.07-0.24,0.21
		c-0.29,1-0.82,1.51-1.32,1.51c-0.26,0-0.31-0.17-0.31-0.44c0-0.29,0.06-0.45,0.29-1.01c0.15-0.39,0.66-1.71,0.66-2.41
		c0-1.21-0.96-1.42-1.62-1.42c-1.04,0-1.74,0.64-2.11,1.14c-0.09-0.86-0.82-1.14-1.34-1.14c-0.54,0-0.82,0.39-0.99,0.67
		c-0.27,0.46-0.45,1.17-0.45,1.24c0,0.16,0.17,0.16,0.21,0.16c0.17,0,0.19-0.04,0.27-0.37c0.19-0.74,0.43-1.35,0.91-1.35
		c0.33,0,0.41,0.27,0.41,0.61c0,0.24-0.11,0.7-0.2,1.04c-0.09,0.34-0.21,0.85-0.27,1.12L354.39,211.7"/>
	<path class="st7" d="M367.76,205.32c0-1.4-0.2-3.56-1.18-5.58c-1.07-2.2-2.61-3.36-2.79-3.36c-0.11,0-0.18,0.07-0.18,0.18
		c0,0.05,0,0.09,0.34,0.41c1.75,1.77,2.77,4.62,2.77,8.36c0,3.06-0.66,6.21-2.88,8.46c-0.23,0.21-0.23,0.25-0.23,0.3
		c0,0.11,0.07,0.18,0.18,0.18c0.18,0,1.79-1.22,2.85-3.49C367.54,208.81,367.76,206.82,367.76,205.32"/>
	<path class="st7" d="M386.8,207.41c0.25,0,0.59,0,0.59-0.36c0-0.36-0.34-0.36-0.61-0.36H376.1c-0.27,0-0.61,0-0.61,0.36
		c0,0.36,0.34,0.36,0.59,0.36H386.8 M386.79,203.94c0.27,0,0.61,0,0.61-0.36c0-0.36-0.34-0.36-0.59-0.36h-10.72
		c-0.25,0-0.59,0-0.59,0.36c0,0.36,0.34,0.36,0.61,0.36H386.79z"/>
	<path class="st7" d="M395.34,203.64v4.8c0,0.8-0.2,0.8-1.4,0.8v0.56c0.63-0.02,1.54-0.05,2.02-0.05c0.46,0,1.4,0.04,2,0.05v-0.56
		c-1.2,0-1.4,0-1.4-0.8v-3.29c0-1.86,1.27-2.86,2.42-2.86c1.13,0,1.32,0.97,1.32,1.99v4.17c0,0.8-0.2,0.8-1.4,0.8v0.56
		c0.63-0.02,1.54-0.05,2.02-0.05c0.46,0,1.4,0.04,2,0.05v-0.56c-1.2,0-1.4,0-1.4-0.8v-3.29c0-1.86,1.27-2.86,2.42-2.86
		c1.13,0,1.32,0.97,1.32,1.99v4.17c0,0.8-0.2,0.8-1.4,0.8v0.56c0.63-0.02,1.54-0.05,2.02-0.05c0.46,0,1.4,0.04,2,0.05v-0.56
		c-0.93,0-1.38,0-1.4-0.54v-3.42c0-1.54,0-2.09-0.56-2.74c-0.25-0.3-0.84-0.66-1.88-0.66c-1.5,0-2.29,1.07-2.59,1.75
		c-0.25-1.56-1.57-1.75-2.38-1.75c-1.31,0-2.15,0.77-2.65,1.88v-1.88l-2.52,0.2v0.56C395.2,202.64,395.34,202.76,395.34,203.64"/>
	<path class="st7" d="M411.51,198.77c0-0.57-0.45-0.95-0.95-0.95c-0.55,0-0.95,0.48-0.95,0.95c0,0.48,0.39,0.95,0.95,0.95
		C411.07,199.72,411.51,199.34,411.51,198.77 M411.44,201.89l-2.51,0.2v0.56c1.16,0,1.32,0.11,1.32,0.98v4.81c0,0.8-0.2,0.8-1.4,0.8
		v0.56c0.57-0.02,1.54-0.05,1.97-0.05c0.63,0,1.25,0.04,1.86,0.05v-0.56c-1.18,0-1.25-0.09-1.25-0.79V201.89z"/>
	<path class="st7" d="M415.17,203.64v4.8c0,0.8-0.2,0.8-1.4,0.8v0.56c0.63-0.02,1.54-0.05,2.02-0.05c0.46,0,1.4,0.04,2,0.05v-0.56
		c-1.2,0-1.4,0-1.4-0.8v-3.29c0-1.86,1.27-2.86,2.42-2.86c1.13,0,1.32,0.97,1.32,1.99v4.17c0,0.8-0.2,0.8-1.4,0.8v0.56
		c0.63-0.02,1.54-0.05,2.02-0.05c0.46,0,1.4,0.04,2,0.05v-0.56c-0.93,0-1.38,0-1.4-0.54v-3.42c0-1.54,0-2.09-0.55-2.74
		c-0.25-0.3-0.84-0.66-1.88-0.66c-1.31,0-2.15,0.77-2.65,1.88v-1.88l-2.52,0.2v0.56C415.03,202.64,415.17,202.76,415.17,203.64"/>
	<path class="st7" d="M433.56,211.23c0-0.84,0-2.17-1.13-3.61c-0.7-0.89-1.72-1.72-2.95-2.27c3.49-1.68,4.08-4.26,4.08-5.28v-10.31
		c0-1.11,0-3.4,3.47-5.12c0.14-0.07,0.14-0.11,0.14-0.38c0-0.38,0-0.39-0.39-0.39c-0.25,0-0.29,0-0.75,0.21
		c-1.77,0.88-3.53,2.29-3.9,4.47c-0.05,0.36-0.05,0.52-0.05,1.72v8.27c0,0.56,0,1.49-0.02,1.68c-0.16,1.88-1.25,3.51-3.29,4.63
		c-0.29,0.16-0.3,0.18-0.3,0.47c0,0.3,0.02,0.32,0.27,0.46c1.2,0.66,2.92,1.95,3.27,4.19c0.07,0.41,0.07,0.45,0.07,0.64v10.63
		c0,2.59,1.79,4.3,4.01,5.35c0.39,0.2,0.43,0.2,0.7,0.2c0.38,0,0.39,0,0.39-0.39c0-0.29-0.02-0.3-0.16-0.39
		c-0.73-0.36-3.04-1.52-3.42-4.1c-0.04-0.25-0.04-0.45-0.04-1.52V211.23"/>
	<path class="st7" d="M453,186.7c0.16-0.63,0.2-0.68,0.97-0.68h1.72c1.49,0,2.43,0.48,2.43,1.72c0,0.7-0.36,2.24-1.06,2.88
		c-0.89,0.8-1.97,0.95-2.76,0.95h-2.52L453,186.7 M451.71,192.03h3.04c2.54,0,5.03-1.86,5.03-3.87c0-1.38-1.18-2.7-3.53-2.7h-5.8
		c-0.34,0-0.54,0-0.54,0.34c0,0.21,0.16,0.21,0.52,0.21c0.23,0,0.55,0.02,0.77,0.04c0.29,0.04,0.39,0.09,0.39,0.29
		c0,0.07-0.02,0.13-0.07,0.34l-2.4,9.61c-0.18,0.7-0.21,0.84-1.63,0.84c-0.3,0-0.5,0-0.5,0.34c0,0.21,0.21,0.21,0.27,0.21
		c0.5,0,1.77-0.05,2.27-0.05c0.38,0,0.77,0.02,1.14,0.02c0.39,0,0.79,0.04,1.16,0.04c0.13,0,0.36,0,0.36-0.36
		c0-0.2-0.16-0.2-0.5-0.2c-0.66,0-1.16,0-1.16-0.32c0-0.11,0.04-0.2,0.05-0.3L451.71,192.03z"/>
	<path class="st7" d="M466.17,201.98c0-0.05,0-0.09-0.3-0.39c-2.24-2.25-2.81-5.64-2.81-8.37c0-3.11,0.68-6.23,2.88-8.46
		c0.23-0.21,0.23-0.25,0.23-0.3c0-0.13-0.07-0.18-0.18-0.18c-0.18,0-1.79,1.22-2.84,3.49c-0.91,1.97-1.13,3.95-1.13,5.46
		c0,1.4,0.2,3.56,1.18,5.58c1.07,2.2,2.61,3.36,2.79,3.36C466.09,202.16,466.17,202.11,466.17,201.98"/>
	<path class="st7" d="M473.45,191.76c-0.2,0.82-0.57,2.34-1.25,3.63c-0.63,1.22-1.31,2.09-2.08,2.09c-0.59,0-0.97-0.52-0.97-2.18
		c0-0.75,0.11-1.79,0.57-3.54H473.45 M469.87,191.19c0.3-1.15,0.66-2.58,1.38-3.85c0.48-0.88,1.15-1.88,1.95-1.88
		c0.88,0,0.98,1.15,0.98,2.17c0,0.88-0.14,1.79-0.57,3.56H469.87z M475.36,188.74c0-1.18-0.32-3.67-2.15-3.67
		c-2.49,0-5.24,5.05-5.24,9.14c0,1.68,0.52,3.67,2.15,3.67C472.64,197.88,475.36,192.75,475.36,188.74z"/>
	<path class="st7" d="M481.26,193.21c0-1.4-0.2-3.56-1.18-5.58c-1.07-2.2-2.61-3.36-2.79-3.36c-0.11,0-0.18,0.07-0.18,0.18
		c0,0.05,0,0.09,0.34,0.41c1.75,1.77,2.77,4.62,2.77,8.36c0,3.06-0.66,6.21-2.88,8.46c-0.23,0.21-0.23,0.25-0.23,0.3
		c0,0.11,0.07,0.18,0.18,0.18c0.18,0,1.79-1.22,2.85-3.49C481.04,196.7,481.26,194.72,481.26,193.21"/>
	<line class="st8" x1="441.67" y1="205.33" x2="487.65" y2="205.33"/>
	<path class="st7" d="M448.37,211.06c0.16-0.63,0.2-0.68,0.97-0.68h1.72c1.49,0,2.43,0.48,2.43,1.72c0,0.7-0.36,2.24-1.06,2.88
		c-0.89,0.8-1.97,0.95-2.76,0.95h-2.52L448.37,211.06 M447.08,216.4h3.04c2.54,0,5.03-1.86,5.03-3.87c0-1.38-1.18-2.7-3.53-2.7h-5.8
		c-0.34,0-0.54,0-0.54,0.34c0,0.21,0.16,0.21,0.52,0.21c0.23,0,0.55,0.02,0.77,0.04c0.29,0.04,0.39,0.09,0.39,0.29
		c0,0.07-0.02,0.13-0.07,0.34l-2.4,9.61c-0.18,0.7-0.21,0.84-1.63,0.84c-0.3,0-0.5,0-0.5,0.34c0,0.21,0.21,0.21,0.27,0.21
		c0.5,0,1.77-0.05,2.27-0.05c0.38,0,0.77,0.02,1.15,0.02c0.39,0,0.79,0.04,1.16,0.04c0.13,0,0.36,0,0.36-0.36
		c0-0.2-0.16-0.2-0.5-0.2c-0.66,0-1.16,0-1.16-0.32c0-0.11,0.04-0.2,0.05-0.3L447.08,216.4z"/>
	<path class="st7" d="M461.53,226.35c0-0.05,0-0.09-0.3-0.39c-2.24-2.25-2.81-5.64-2.81-8.37c0-3.11,0.68-6.23,2.88-8.46
		c0.23-0.21,0.23-0.25,0.23-0.3c0-0.13-0.07-0.18-0.18-0.18c-0.18,0-1.79,1.22-2.84,3.49c-0.91,1.97-1.13,3.95-1.13,5.46
		c0,1.4,0.2,3.56,1.18,5.58c1.07,2.2,2.61,3.36,2.79,3.36C461.46,226.53,461.53,226.47,461.53,226.35"/>
	<path class="st7" d="M468.81,216.13c-0.2,0.82-0.57,2.34-1.25,3.63c-0.63,1.22-1.31,2.09-2.08,2.09c-0.59,0-0.97-0.52-0.97-2.18
		c0-0.75,0.11-1.79,0.57-3.54H468.81 M465.23,215.56c0.3-1.15,0.66-2.58,1.38-3.85c0.48-0.88,1.15-1.88,1.95-1.88
		c0.88,0,0.98,1.15,0.98,2.17c0,0.88-0.14,1.79-0.57,3.56H465.23z M470.73,213.1c0-1.18-0.32-3.67-2.15-3.67
		c-2.49,0-5.24,5.05-5.24,9.14c0,1.68,0.52,3.67,2.15,3.67C468.01,222.25,470.73,217.11,470.73,213.1z"/>
	<path class="st7" d="M472.48,223.96c-0.05,0.16-0.12,0.47-0.12,0.51c0,0.27,0.22,0.4,0.42,0.4c0.23,0,0.42-0.16,0.49-0.27
		c0.06-0.11,0.16-0.51,0.22-0.77c0.06-0.24,0.2-0.81,0.27-1.12c0.07-0.27,0.15-0.55,0.21-0.84c0.14-0.51,0.16-0.61,0.52-1.12
		c0.35-0.5,0.94-1.15,1.87-1.15c0.72,0,0.74,0.64,0.74,0.87c0,0.75-0.54,2.14-0.74,2.66c-0.14,0.35-0.19,0.46-0.19,0.67
		c0,0.66,0.55,1.07,1.19,1.07c1.25,0,1.8-1.72,1.8-1.91c0-0.16-0.16-0.16-0.2-0.16c-0.17,0-0.19,0.07-0.24,0.21
		c-0.29,1-0.82,1.51-1.32,1.51c-0.26,0-0.31-0.17-0.31-0.44c0-0.29,0.06-0.45,0.29-1.01c0.15-0.39,0.66-1.71,0.66-2.41
		c0-1.21-0.96-1.42-1.62-1.42c-1.04,0-1.74,0.64-2.11,1.14c-0.09-0.86-0.82-1.14-1.34-1.14c-0.54,0-0.82,0.39-0.99,0.67
		c-0.28,0.46-0.45,1.17-0.45,1.24c0,0.16,0.17,0.16,0.21,0.16c0.17,0,0.19-0.04,0.27-0.37c0.19-0.74,0.43-1.35,0.91-1.35
		c0.33,0,0.41,0.27,0.41,0.61c0,0.24-0.11,0.7-0.2,1.04c-0.09,0.34-0.21,0.85-0.28,1.12L472.48,223.96"/>
	<path class="st7" d="M485.84,217.58c0-1.4-0.2-3.56-1.18-5.58c-1.07-2.2-2.61-3.36-2.79-3.36c-0.11,0-0.18,0.07-0.18,0.18
		c0,0.05,0,0.09,0.34,0.41c1.75,1.77,2.77,4.62,2.77,8.36c0,3.06-0.66,6.21-2.88,8.46c-0.23,0.21-0.23,0.25-0.23,0.3
		c0,0.11,0.07,0.18,0.18,0.18c0.18,0,1.79-1.22,2.85-3.49C485.63,221.07,485.84,219.08,485.84,217.58"/>
	<path class="st7" d="M497.23,210.94c0-2.11,1.07-3.94,3.47-5.23c0.13-0.07,0.14-0.09,0.14-0.38c0-0.3-0.02-0.32-0.21-0.43
		c-3.22-1.72-3.4-4.35-3.4-4.87v-10.63c0-2.59-1.79-4.29-4.01-5.35c-0.39-0.2-0.43-0.2-0.7-0.2c-0.38,0-0.39,0.02-0.39,0.39
		c0,0.27,0,0.3,0.16,0.39c0.77,0.38,3.06,1.54,3.42,4.1c0.04,0.25,0.04,0.45,0.04,1.52v9.16c0,0.84,0,2.17,1.13,3.61
		c0.7,0.89,1.72,1.72,2.95,2.27c-3.49,1.68-4.08,4.26-4.08,5.28v10.31c0,0.93,0,1.97-1.04,3.27c-0.81,1-1.68,1.47-2.45,1.84
		c-0.13,0.07-0.13,0.14-0.13,0.38c0,0.38,0.02,0.39,0.39,0.39c0.25,0,0.29,0,0.75-0.21c1.77-0.88,3.53-2.29,3.9-4.47
		c0.05-0.36,0.05-0.52,0.05-1.72V210.94"/>
	<path class="st9" d="M406.33,205.26L406.33,205.26z"/>
</g>
<polygon class="st10" points="405,204.47 405,204.47 405,204.47 405,204.47 405,204.47 405,204.47 405,204.47 405,204.47 
	405,204.47 405,204.47 405,204.47 405,204.47 405,204.47 405,204.47 405,204.47 405,204.47 405,204.47 405,204.47 405,204.47 
	405,204.47 405,204.47 405,204.47 405,204.47 405,204.47 405,204.47 405,204.47 405,204.47 405,204.47 405,204.47 405,204.47 
	405,204.47 405,204.47 405,204.47 405,204.47 405,204.47 405,204.47 405,204.47 405,204.47 405,204.47 405,204.47 405,204.47 
	405,204.47 405,204.47 405,204.47 405,204.47 405,204.47 405,204.47 405,204.47 405,204.47 405,204.47 405,204.47 405,204.47 
	405,204.47 405,204.47 405,204.47 405,204.47 405,204.47 405,204.47 405,204.47 405,204.47 405,204.47 405,204.47 405,204.47 
	405,204.47 405,204.47 405,204.47 405,204.47 405,204.47 405,204.47 405,204.47 405,204.47 405,204.47 405,204.47 405,204.47 
	405,204.47 405,204.47 405,204.47 405,204.47 405,204.47 405,204.47 405,204.47 405,204.47 405,204.47 405,204.47 405,204.47 
	405,204.47 405,204.47 405,204.47 405,204.47 405,204.47 405,204.47 405,204.47 405,204.47 405,204.47 405,204.47 405,204.47 
	405,204.47 "/>
</svg>
