<?xml version="1.0" encoding="utf-8"?>
<!-- Generator: Adobe Illustrator 23.0.3, SVG Export Plug-In . SVG Version: 6.00 Build 0)  -->
<svg version="1.1" id="Layer_1" xmlns="http://www.w3.org/2000/svg" xmlns:xlink="http://www.w3.org/1999/xlink" x="0px" y="0px"
	 viewBox="0 0 623.5 237.5" style="enable-background:new 0 0 623.5 237.5;" xml:space="preserve">
<style type="text/css">
	.st0{fill:#909090;}
	.st1{fill:#FFFFFF;stroke:#E36F1E;stroke-width:3;stroke-miterlimit:10;}
	.st2{fill:none;}
	.st3{font-family:'ArialMT';}
	.st4{font-size:18px;}
	.st5{fill:#FFFFFF;stroke:#808080;stroke-width:3;stroke-miterlimit:10;}
	.st6{fill:none;stroke:#808080;stroke-width:3;stroke-miterlimit:10;}
	.st7{fill:none;stroke:#000000;stroke-width:1.000000e-06;stroke-miterlimit:10;stroke-opacity:0;}
</style>
<g>
	<g>
		<g>
			<path class="st0" d="M508.5,191.09h93.84h13.02H617c0.5-0.05,1.32,0.23,1.08-0.56v-3.29v-6.57v-23.92v-46.92V62.9V39.44V26.88
				v-6.57c-0.01-0.13,0.02-0.29-0.02-0.39h-0.41h-0.82h-1.64h-3.29h-80.62V8.35L508.5,21.5l22.78,13.15V23.09h78.78h2.58h1.29h0.64
				h0.32c0.03,0.08,0.01,0.21,0.01,0.31v5.16v10.89V62.9v46.92v46.92v22.99v5.16v2.58c0.19,0.62-0.46,0.4-0.85,0.44h-1.29h-10.44
				H508.5V191.09z"/>
		</g>
	</g>
</g>
<g>
	<g>
		<g>
			<polygon class="st0" points="302.5,185.91 230.28,185.91 230.28,174.35 207.5,187.5 230.28,200.65 230.28,189.09 302.5,189.09 
							"/>
		</g>
	</g>
</g>
<g>
	<g>
		<g>
			<path class="st0" d="M107.09,154.5V85.42V50.89V33.74v-7.59v-1.9V23.3c0.01-0.07-0.02-0.18,0.02-0.22h0.24h0.47h3.8H248.8h30.91
				v11.57L302.5,21.5L279.72,8.35v11.57H248.8H109.69h-4.84h-0.6h-0.3c-0.05,0.05-0.02,0.19-0.03,0.28v1.21v2.42v9.68V50.9v34.54
				v69.08h3.17V154.5z"/>
		</g>
	</g>
</g>
<g>
	<g>
		<g>
			<polygon class="st0" points="403.91,59 403.91,122.72 392.35,122.72 405.5,145.5 418.65,122.72 407.09,122.72 407.09,59 			"/>
		</g>
	</g>
</g>
<rect x="302.5" y="1.5" class="st1" width="206" height="57"/>
<rect x="320.43" y="21.21" class="st2" width="171.57" height="17.79"/>
<text transform="matrix(1 0 0 1 321.4248 33.9927)" class="st3 st4">Random Walk Sampler</text>
<rect x="302.5" y="145.5" class="st1" width="206" height="87"/>
<rect x="320.43" y="165.21" class="st2" width="171.57" height="17.79"/>
<text transform="matrix(1 0 0 1 331.1001 191.9927)" class="st3 st4">Metropolis Criterion</text>
<path class="st5" d="M805.5,161.5"/>
<rect x="1.5" y="154.5" class="st1" width="206" height="70"/>
<rect x="19.43" y="170.39" class="st2" width="171.57" height="40.61"/>
<text transform="matrix(1 0 0 1 50.2773 183.1724)" class="st3 st4">Update step in</text>
<text transform="matrix(1 0 0 1 54.8273 204.7724)" class="st3 st4">Markov chain</text>
<path class="st6" d="M377.5,396.5"/>
<rect x="533.86" y="168.35" class="st2" width="76.6" height="15.77"/>
<text transform="matrix(1 0 0 1 533.8574 181.1299)" class="st3 st4">Reject</text>
<rect x="234.86" y="168.35" class="st2" width="94.6" height="15.77"/>
<text transform="matrix(1 0 0 1 234.8574 181.1299)" class="st3 st4">Accept</text>
<polygon class="st7" points="405,204.47 405,204.47 405,204.47 405,204.47 405,204.47 405,204.47 405,204.47 405,204.47 405,204.47 
	405,204.47 405,204.47 405,204.47 405,204.47 405,204.47 405,204.47 405,204.47 405,204.47 405,204.47 405,204.47 405,204.47 
	405,204.47 405,204.47 405,204.47 405,204.47 405,204.47 405,204.47 405,204.47 405,204.47 405,204.47 405,204.47 405,204.47 
	405,204.47 405,204.47 405,204.47 405,204.47 405,204.47 405,204.47 405,204.47 405,204.47 405,204.47 405,204.47 405,204.47 
	405,204.47 405,204.47 405,204.47 405,204.47 405,204.47 405,204.47 405,204.47 405,204.47 405,204.47 405,204.47 405,204.47 
	405,204.47 405,204.47 405,204.47 405,204.47 405,204.47 405,204.47 405,204.47 405,204.47 405,204.47 405,204.47 405,204.47 
	405,204.47 405,204.47 405,204.47 405,204.47 405,204.47 405,204.47 405,204.47 405,204.47 405,204.47 405,204.47 405,204.47 
	405,204.47 405,204.47 405,204.47 405,204.47 405,204.47 405,204.47 405,204.47 405,204.47 405,204.47 405,204.47 405,204.47 
	405,204.47 405,204.47 405,204.47 405,204.47 405,204.47 405,204.47 405,204.47 405,204.47 405,204.47 405,204.47 "/>
</svg>
