<?xml version="1.0" encoding="utf-8"?>
<!-- Generator: Adobe Illustrator 23.0.3, SVG Export Plug-In . SVG Version: 6.00 Build 0)  -->
<svg version="1.1" id="Layer_1" xmlns="http://www.w3.org/2000/svg" xmlns:xlink="http://www.w3.org/1999/xlink" x="0px" y="0px"
	 viewBox="0 0 619.5 318.5" style="enable-background:new 0 0 619.5 318.5;" xml:space="preserve">
<style type="text/css">
	.st0{fill:#909090;}
	.st1{fill:#FFFFFF;stroke:#E36F1E;stroke-width:3;stroke-miterlimit:10;}
	.st2{fill:none;}
	.st3{font-family:'MyriadPro-Regular';}
	.st4{font-size:18px;}
	.st5{fill:#FFFFFF;stroke:#808080;stroke-width:3;stroke-miterlimit:10;}
	.st6{fill:none;stroke:#808080;stroke-width:3;stroke-miterlimit:10;}
	.st7{clip-path:url(#SVGID_2_);}
	.st8{clip-path:url(#SVGID_2_);fill:none;stroke:#000000;stroke-width:1.4328;stroke-miterlimit:10;}
	.st9{opacity:0;clip-path:url(#SVGID_2_);fill:none;stroke:#000000;stroke-width:9.999999e-07;stroke-miterlimit:10;}
	.st10{opacity:0;fill:none;stroke:#000000;stroke-width:1.000000e-06;stroke-miterlimit:10;}
</style>
<g>
	<g>
		<g>
			<polygon class="st0" points="403.91,58.5 403.91,85.71 392.35,85.71 405.5,108.5 418.65,85.71 407.09,85.71 407.09,58.5 			"/>
		</g>
	</g>
</g>
<rect x="302.5" y="1.5" class="st1" width="206" height="57"/>
<rect x="320.43" y="21.21" class="st2" width="171.57" height="17.79"/>
<text transform="matrix(1 0 0 1 321.4248 33.9927)" class="st3 st4">Random Walk Sampler</text>
<rect x="302.5" y="108.5" class="st1" width="206" height="70"/>
<rect x="320.43" y="128.39" class="st2" width="171.57" height="45.31"/>
<text transform="matrix(1 0 0 1 336.3193 141.1724)"><tspan x="0" y="0" class="st3 st4">Solve Forward Eqn</tspan><tspan x="12.03" y="21.6" class="st3 st4">to get Sim Data</tspan></text>
<rect x="302.5" y="228.5" class="st1" width="206" height="87"/>
<rect x="320.43" y="243.21" class="st2" width="171.57" height="17.79"/>
<text transform="matrix(1 0 0 1 331.1001 255.9927)" class="st3 st4">Metropolis Criterion</text>
<path class="st5" d="M805.5,161.5"/>
<rect x="1.5" y="237.5" class="st1" width="206" height="70"/>
<rect x="19.43" y="253.39" class="st2" width="171.57" height="40.61"/>
<text transform="matrix(1 0 0 1 50.2773 266.1724)"><tspan x="0" y="0" class="st3 st4">Update step in</tspan><tspan x="4.55" y="21.6" class="st3 st4">Markov chain</tspan></text>
<path class="st6" d="M377.5,386.5"/>
<rect x="533.86" y="251.35" class="st2" width="94.6" height="15.77"/>
<text transform="matrix(1 0 0 1 533.8574 264.1299)" class="st3 st4">Reject</text>
<rect x="234.86" y="251.35" class="st2" width="94.6" height="15.77"/>
<text transform="matrix(1 0 0 1 234.8574 264.1299)" class="st3 st4">Accept</text>
<g>
	<g>
		<g>
			<polygon class="st0" points="403.91,178.5 403.91,205.72 392.35,205.72 405.5,228.5 418.65,205.72 407.09,205.72 407.09,178.5 
							"/>
		</g>
	</g>
</g>
<g>
	<g>
		<g>
			<path class="st0" d="M508.5,274.09h57.73h28.86h15.18h4.04h2.02h1.01h0.51c0.08-0.01,0.18,0.02,0.24-0.02v-0.25v-8.09V149.59
				V34.07v-8.09v-4.04v-2.02l-2.01-0.01h-15.8h-28.86h-40.12V8.35L508.5,21.5l22.78,13.15V23.09h40.12h28.86h13.06l1.58,0.01v1.59
				v3.17v6.35v115.39v114.77v6.35v0.2c-0.04,0.02-0.13,0.01-0.19,0.01h-0.4h-0.79h-1.59h-3.17h-13.69h-28.86H508.5V274.09z"/>
		</g>
	</g>
</g>
<g>
	<g>
		<g>
			<polygon class="st0" points="302.5,268.91 230.28,268.91 230.28,257.35 207.5,270.5 230.28,283.65 230.28,272.09 302.5,272.09 
							"/>
		</g>
	</g>
</g>
<g>
	<g>
		<g>
			<path class="st0" d="M107.09,237.5V34.72V23.56c-0.2-0.67,0.49-0.44,0.92-0.48h1.39h2.79h5.57h25.22h50.7h86.04v11.57l2.44-1.41
				L302.5,21.5L282.15,9.75l-2.44-1.41v11.57h-86.04h-50.7h-25.47h-7.1h-3.55h-1.78h-0.89h-0.22c-0.05-0.01-0.07,0-0.06,0.05v0.11
				v0.44v14.2V237.5H107.09z"/>
		</g>
	</g>
</g>
<g>
	<defs>
		<rect id="SVGID_1_" x="304.75" y="265.59" width="199.25" height="42.38"/>
	</defs>
	<clipPath id="SVGID_2_">
		<use xlink:href="#SVGID_1_"  style="overflow:visible;"/>
	</clipPath>
	<path class="st7" d="M309.07,291.02c-1.22,0-1.5-1.4-1.5-1.56c0-0.07,0.09-0.42,0.14-0.65c0.49-1.96,0.67-2.59,1.05-3.29
		c0.75-1.28,1.63-1.66,2.17-1.66c0.65,0,1.21,0.51,1.21,1.71c0,0.96-0.51,2.92-0.98,3.78C310.57,290.46,309.73,291.02,309.07,291.02
		 M305.18,294.24c-0.05,0.21-0.05,0.25-0.05,0.28c0,0.26,0.19,0.47,0.49,0.47c0.37,0,0.58-0.32,0.61-0.37
		c0.09-0.16,0.65-2.5,1.12-4.39c0.35,0.7,0.91,1.17,1.73,1.17c2.05,0,4.3-2.47,4.3-5.07c0-1.85-1.16-2.85-2.43-2.85
		c-1.7,0-3.53,1.75-4.06,3.88L305.18,294.24z"/>
	<path class="st7" d="M319.41,295.41c0-0.05,0-0.09-0.3-0.38c-2.19-2.2-2.75-5.51-2.75-8.19c0-3.04,0.66-6.09,2.82-8.28
		c0.23-0.21,0.23-0.25,0.23-0.3c0-0.12-0.07-0.18-0.18-0.18c-0.18,0-1.75,1.19-2.78,3.41c-0.89,1.93-1.1,3.87-1.1,5.34
		c0,1.36,0.19,3.48,1.15,5.46c1.05,2.15,2.55,3.29,2.73,3.29C319.34,295.58,319.41,295.53,319.41,295.41"/>
	<path class="st7" d="M326.53,285.42c-0.19,0.8-0.56,2.29-1.22,3.55c-0.61,1.19-1.28,2.05-2.03,2.05c-0.58,0-0.95-0.51-0.95-2.13
		c0-0.73,0.11-1.75,0.56-3.46H326.53 M323.03,284.86c0.3-1.12,0.65-2.52,1.35-3.76c0.47-0.86,1.12-1.84,1.91-1.84
		c0.86,0,0.96,1.12,0.96,2.12c0,0.86-0.14,1.75-0.56,3.48H323.03z M328.4,282.46c0-1.15-0.32-3.59-2.1-3.59
		c-2.43,0-5.13,4.93-5.13,8.94c0,1.64,0.51,3.59,2.1,3.59C325.74,291.4,328.4,286.38,328.4,282.46z"/>
	<path class="st7" d="M332.66,291.19c0-1.15-0.44-1.84-1.12-1.84c-0.58,0-0.93,0.44-0.93,0.93c0,0.47,0.35,0.93,0.93,0.93
		c0.21,0,0.44-0.07,0.61-0.23c0.05-0.04,0.07-0.05,0.09-0.05c0.02,0,0.04,0.02,0.04,0.26c0,1.29-0.61,2.34-1.19,2.92
		c-0.19,0.19-0.19,0.23-0.19,0.28c0,0.12,0.09,0.19,0.18,0.19C331.26,294.59,332.66,293.24,332.66,291.19"/>
	<path class="st7" d="M342.94,285.42c-0.19,0.8-0.56,2.29-1.22,3.55c-0.61,1.19-1.28,2.05-2.03,2.05c-0.58,0-0.95-0.51-0.95-2.13
		c0-0.73,0.11-1.75,0.56-3.46H342.94 M339.44,284.86c0.3-1.12,0.65-2.52,1.35-3.76c0.47-0.86,1.12-1.84,1.91-1.84
		c0.86,0,0.96,1.12,0.96,2.12c0,0.86-0.14,1.75-0.56,3.48H339.44z M344.82,282.46c0-1.15-0.32-3.59-2.1-3.59
		c-2.43,0-5.13,4.93-5.13,8.94c0,1.64,0.51,3.59,2.1,3.59C342.16,291.4,344.82,286.38,344.82,282.46z"/>
	<path class="st7" d="M346.58,293.07c-0.05,0.16-0.12,0.46-0.12,0.5c0,0.27,0.22,0.39,0.41,0.39c0.22,0,0.41-0.16,0.48-0.27
		c0.06-0.11,0.16-0.5,0.22-0.76c0.06-0.23,0.2-0.79,0.27-1.1c0.07-0.27,0.15-0.54,0.21-0.82c0.13-0.5,0.16-0.6,0.51-1.1
		c0.34-0.49,0.92-1.12,1.83-1.12c0.71,0,0.72,0.62,0.72,0.85c0,0.73-0.53,2.09-0.72,2.6c-0.13,0.34-0.18,0.45-0.18,0.66
		c0,0.65,0.54,1.05,1.16,1.05c1.22,0,1.76-1.68,1.76-1.87c0-0.16-0.16-0.16-0.2-0.16c-0.17,0-0.18,0.07-0.23,0.21
		c-0.28,0.98-0.81,1.48-1.29,1.48c-0.26,0-0.31-0.17-0.31-0.43c0-0.28,0.06-0.44,0.28-0.99c0.15-0.38,0.65-1.67,0.65-2.36
		c0-1.18-0.94-1.39-1.59-1.39c-1.01,0-1.7,0.62-2.06,1.11c-0.09-0.84-0.81-1.11-1.31-1.11c-0.53,0-0.81,0.38-0.97,0.66
		c-0.27,0.45-0.44,1.15-0.44,1.21c0,0.16,0.17,0.16,0.21,0.16c0.17,0,0.18-0.04,0.27-0.37c0.18-0.72,0.42-1.32,0.89-1.32
		c0.32,0,0.4,0.27,0.4,0.6c0,0.23-0.11,0.68-0.2,1.01c-0.09,0.33-0.21,0.83-0.27,1.1L346.58,293.07"/>
	<path class="st7" d="M359.64,286.84c0-1.36-0.19-3.48-1.16-5.46c-1.05-2.15-2.55-3.29-2.73-3.29c-0.1,0-0.17,0.07-0.17,0.18
		c0,0.05,0,0.09,0.33,0.4c1.71,1.73,2.71,4.51,2.71,8.17c0,2.99-0.65,6.07-2.82,8.28c-0.23,0.21-0.23,0.24-0.23,0.3
		c0,0.11,0.07,0.18,0.17,0.18c0.18,0,1.75-1.19,2.78-3.41C359.43,290.25,359.64,288.31,359.64,286.84"/>
	<path class="st7" d="M378.27,288.88c0.25,0,0.58,0,0.58-0.35c0-0.35-0.33-0.35-0.59-0.35h-10.44c-0.26,0-0.6,0-0.6,0.35
		c0,0.35,0.33,0.35,0.58,0.35H378.27 M378.25,285.49c0.26,0,0.59,0,0.59-0.35c0-0.35-0.33-0.35-0.58-0.35h-10.48
		c-0.25,0-0.58,0-0.58,0.35c0,0.35,0.33,0.35,0.6,0.35H378.25z"/>
	<path class="st7" d="M386.57,285.19v4.69c0,0.79-0.19,0.79-1.36,0.79v0.54c0.61-0.02,1.5-0.05,1.98-0.05
		c0.45,0,1.36,0.04,1.96,0.05v-0.54c-1.17,0-1.37,0-1.37-0.79v-3.22c0-1.82,1.24-2.8,2.36-2.8c1.1,0,1.29,0.94,1.29,1.94v4.08
		c0,0.79-0.19,0.79-1.36,0.79v0.54c0.61-0.02,1.5-0.05,1.98-0.05c0.45,0,1.37,0.04,1.96,0.05v-0.54c-1.17,0-1.36,0-1.36-0.79v-3.22
		c0-1.82,1.24-2.8,2.36-2.8c1.1,0,1.29,0.94,1.29,1.94v4.08c0,0.79-0.19,0.79-1.37,0.79v0.54c0.61-0.02,1.5-0.05,1.98-0.05
		c0.45,0,1.36,0.04,1.96,0.05v-0.54c-0.91,0-1.35,0-1.36-0.52v-3.34c0-1.5,0-2.05-0.54-2.68c-0.24-0.3-0.82-0.65-1.84-0.65
		c-1.47,0-2.24,1.05-2.54,1.71c-0.25-1.52-1.54-1.71-2.33-1.71c-1.28,0-2.1,0.75-2.59,1.84v-1.84l-2.47,0.19v0.54
		C386.43,284.21,386.57,284.33,386.57,285.19"/>
	<path class="st7" d="M402.43,280.43c0-0.56-0.44-0.93-0.93-0.93c-0.54,0-0.93,0.47-0.93,0.93c0,0.47,0.38,0.93,0.93,0.93
		C401.99,281.36,402.43,280.99,402.43,280.43 M402.36,283.48l-2.45,0.19v0.54c1.14,0,1.29,0.11,1.29,0.96v4.71
		c0,0.79-0.19,0.79-1.36,0.79v0.54c0.56-0.02,1.5-0.05,1.92-0.05c0.61,0,1.22,0.04,1.82,0.05v-0.54c-1.15,0-1.22-0.09-1.22-0.77
		V283.48z"/>
	<path class="st7" d="M406.01,285.19v4.69c0,0.79-0.19,0.79-1.36,0.79v0.54c0.61-0.02,1.5-0.05,1.98-0.05
		c0.45,0,1.36,0.04,1.96,0.05v-0.54c-1.17,0-1.37,0-1.37-0.79v-3.22c0-1.82,1.24-2.8,2.36-2.8c1.1,0,1.29,0.94,1.29,1.94v4.08
		c0,0.79-0.19,0.79-1.36,0.79v0.54c0.61-0.02,1.5-0.05,1.98-0.05c0.45,0,1.37,0.04,1.96,0.05v-0.54c-0.91,0-1.35,0-1.36-0.52v-3.34
		c0-1.5,0-2.05-0.54-2.68c-0.25-0.3-0.82-0.65-1.84-0.65c-1.28,0-2.1,0.75-2.59,1.84v-1.84l-2.47,0.19v0.54
		C405.87,284.21,406.01,284.33,406.01,285.19"/>
	<path class="st7" d="M423.98,292.61c0-0.82,0-2.12-1.1-3.53c-0.68-0.87-1.68-1.68-2.89-2.22c3.41-1.64,3.99-4.16,3.99-5.16v-10.08
		c0-1.08,0-3.32,3.39-5c0.14-0.07,0.14-0.11,0.14-0.37c0-0.37,0-0.38-0.38-0.38c-0.25,0-0.28,0-0.73,0.21
		c-1.73,0.86-3.45,2.24-3.81,4.37c-0.05,0.35-0.05,0.51-0.05,1.68v8.08c0,0.54,0,1.45-0.02,1.64c-0.16,1.84-1.22,3.43-3.22,4.53
		c-0.28,0.16-0.3,0.18-0.3,0.46c0,0.3,0.02,0.31,0.26,0.45c1.17,0.65,2.85,1.91,3.2,4.09c0.07,0.4,0.07,0.44,0.07,0.63v10.39
		c0,2.54,1.75,4.2,3.92,5.23c0.38,0.19,0.42,0.19,0.68,0.19c0.37,0,0.38,0,0.38-0.39c0-0.28-0.02-0.3-0.16-0.39
		c-0.72-0.35-2.97-1.49-3.34-4.01c-0.04-0.25-0.04-0.44-0.04-1.49V292.61"/>
	<path class="st7" d="M442.99,268.63c0.16-0.61,0.19-0.66,0.95-0.66h1.68c1.45,0,2.38,0.47,2.38,1.68c0,0.68-0.35,2.19-1.03,2.82
		c-0.87,0.79-1.92,0.93-2.69,0.93h-2.47L442.99,268.63 M441.73,273.84h2.98c2.48,0,4.92-1.82,4.92-3.78c0-1.35-1.16-2.64-3.45-2.64
		h-5.67c-0.33,0-0.53,0-0.53,0.33c0,0.21,0.16,0.21,0.51,0.21c0.23,0,0.54,0.02,0.75,0.03c0.28,0.04,0.38,0.09,0.38,0.28
		c0,0.07-0.02,0.12-0.07,0.33l-2.34,9.4c-0.17,0.68-0.21,0.82-1.59,0.82c-0.3,0-0.49,0-0.49,0.33c0,0.21,0.21,0.21,0.26,0.21
		c0.49,0,1.73-0.05,2.22-0.05c0.37,0,0.75,0.02,1.12,0.02c0.39,0,0.77,0.04,1.14,0.04c0.12,0,0.35,0,0.35-0.35
		c0-0.19-0.16-0.19-0.49-0.19c-0.65,0-1.14,0-1.14-0.31c0-0.11,0.04-0.19,0.05-0.3L441.73,273.84z"/>
	<path class="st7" d="M455.86,283.57c0-0.05,0-0.09-0.3-0.38c-2.19-2.2-2.75-5.51-2.75-8.19c0-3.04,0.66-6.09,2.82-8.28
		c0.23-0.21,0.23-0.25,0.23-0.3c0-0.12-0.07-0.18-0.18-0.18c-0.17,0-1.75,1.19-2.78,3.41c-0.89,1.93-1.1,3.87-1.1,5.34
		c0,1.36,0.19,3.48,1.16,5.46c1.05,2.15,2.55,3.29,2.73,3.29C455.79,283.75,455.86,283.69,455.86,283.57"/>
	<path class="st7" d="M462.93,273.58c-0.19,0.8-0.56,2.29-1.22,3.55c-0.61,1.19-1.28,2.05-2.03,2.05c-0.58,0-0.95-0.51-0.95-2.13
		c0-0.73,0.11-1.75,0.56-3.46H462.93 M459.43,273.02c0.3-1.12,0.65-2.52,1.35-3.76c0.47-0.86,1.12-1.84,1.91-1.84
		c0.86,0,0.96,1.12,0.96,2.12c0,0.86-0.14,1.75-0.56,3.48H459.43z M464.8,270.62c0-1.15-0.32-3.59-2.1-3.59
		c-2.43,0-5.13,4.93-5.13,8.94c0,1.64,0.51,3.59,2.1,3.59C462.14,279.57,464.8,274.54,464.8,270.62z"/>
	<path class="st7" d="M468.35,266.88c0-0.32,0-0.63-0.35-0.63c-0.35,0-0.35,0.32-0.35,0.63v16.24c0,0.32,0,0.63,0.35,0.63
		c0.35,0,0.35-0.31,0.35-0.63V266.88"/>
	<path class="st7" d="M475.77,277.29c-0.09,0.32-0.09,0.35-0.35,0.65c-0.77,0.96-1.49,1.24-1.98,1.24c-0.87,0-1.12-0.96-1.12-1.64
		c0-0.88,0.56-3.03,0.96-3.83c0.54-1.03,1.33-1.68,2.03-1.68c1.14,0,1.38,1.43,1.38,1.54c0,0.11-0.04,0.21-0.05,0.3L475.77,277.29
		 M479.41,267.42c0-0.02,0-0.19-0.23-0.19c-0.26,0-1.92,0.16-2.22,0.19c-0.14,0.02-0.24,0.11-0.24,0.33c0,0.21,0.16,0.21,0.42,0.21
		c0.84,0,0.87,0.12,0.87,0.3l-0.05,0.35l-1.05,4.15c-0.31-0.65-0.82-1.12-1.61-1.12c-2.05,0-4.22,2.57-4.22,5.13
		c0,1.64,0.96,2.8,2.33,2.8c0.35,0,1.22-0.07,2.27-1.31c0.14,0.73,0.75,1.31,1.59,1.31c0.61,0,1.01-0.4,1.29-0.96
		c0.3-0.63,0.53-1.7,0.53-1.73c0-0.18-0.16-0.18-0.21-0.18c-0.18,0-0.19,0.07-0.25,0.32c-0.3,1.14-0.61,2.17-1.33,2.17
		c-0.47,0-0.52-0.45-0.52-0.8c0-0.42,0.04-0.54,0.1-0.84L479.41,267.42z"/>
	<path class="st7" d="M484.55,275c0-1.36-0.19-3.48-1.16-5.46c-1.05-2.15-2.55-3.29-2.73-3.29c-0.1,0-0.17,0.07-0.17,0.18
		c0,0.05,0,0.09,0.33,0.4c1.71,1.73,2.71,4.51,2.71,8.17c0,2.99-0.65,6.07-2.82,8.28c-0.23,0.21-0.23,0.24-0.23,0.3
		c0,0.11,0.07,0.18,0.17,0.18c0.18,0,1.75-1.19,2.78-3.41C484.34,278.41,484.55,276.47,484.55,275"/>
	<line class="st8" x1="431.91" y1="286.84" x2="490.8" y2="286.84"/>
	<path class="st7" d="M438.46,292.45c0.16-0.61,0.19-0.66,0.95-0.66h1.68c1.45,0,2.38,0.47,2.38,1.68c0,0.68-0.35,2.19-1.03,2.82
		c-0.87,0.79-1.92,0.93-2.69,0.93h-2.47L438.46,292.45 M437.2,297.67h2.98c2.48,0,4.92-1.82,4.92-3.78c0-1.35-1.16-2.64-3.45-2.64
		h-5.67c-0.33,0-0.53,0-0.53,0.33c0,0.21,0.16,0.21,0.51,0.21c0.23,0,0.54,0.02,0.75,0.03c0.28,0.04,0.38,0.09,0.38,0.28
		c0,0.07-0.02,0.12-0.07,0.33l-2.34,9.4c-0.17,0.68-0.21,0.82-1.59,0.82c-0.3,0-0.49,0-0.49,0.33c0,0.21,0.21,0.21,0.26,0.21
		c0.49,0,1.73-0.05,2.22-0.05c0.37,0,0.75,0.02,1.12,0.02c0.39,0,0.77,0.04,1.14,0.04c0.12,0,0.35,0,0.35-0.35
		c0-0.19-0.16-0.19-0.49-0.19c-0.65,0-1.14,0-1.14-0.31c0-0.11,0.04-0.19,0.05-0.3L437.2,297.67z"/>
	<path class="st7" d="M451.33,307.39c0-0.05,0-0.09-0.3-0.38c-2.19-2.2-2.75-5.51-2.75-8.19c0-3.04,0.66-6.09,2.82-8.28
		c0.23-0.21,0.23-0.25,0.23-0.3c0-0.12-0.07-0.18-0.18-0.18c-0.17,0-1.75,1.19-2.78,3.41c-0.89,1.93-1.1,3.87-1.1,5.34
		c0,1.36,0.19,3.48,1.16,5.46c1.05,2.15,2.55,3.29,2.73,3.29C451.26,307.57,451.33,307.52,451.33,307.39"/>
	<path class="st7" d="M458.45,297.4c-0.19,0.8-0.56,2.29-1.22,3.55c-0.61,1.19-1.28,2.05-2.03,2.05c-0.58,0-0.95-0.51-0.95-2.13
		c0-0.73,0.11-1.75,0.56-3.46H458.45 M454.95,296.84c0.3-1.12,0.65-2.52,1.35-3.76c0.47-0.86,1.12-1.84,1.91-1.84
		c0.86,0,0.96,1.12,0.96,2.12c0,0.86-0.14,1.75-0.56,3.48H454.95z M460.32,294.45c0-1.15-0.32-3.59-2.1-3.59
		c-2.43,0-5.13,4.93-5.13,8.94c0,1.64,0.51,3.59,2.1,3.59C457.66,303.39,460.32,298.37,460.32,294.45z"/>
	<path class="st7" d="M462.03,305.06c-0.05,0.16-0.12,0.46-0.12,0.5c0,0.27,0.22,0.39,0.41,0.39c0.22,0,0.42-0.16,0.48-0.27
		c0.06-0.11,0.16-0.5,0.22-0.76c0.06-0.23,0.2-0.79,0.27-1.1c0.07-0.27,0.15-0.54,0.21-0.82c0.13-0.5,0.16-0.6,0.51-1.1
		c0.34-0.49,0.92-1.12,1.83-1.12c0.71,0,0.72,0.62,0.72,0.85c0,0.73-0.53,2.09-0.72,2.6c-0.13,0.34-0.18,0.45-0.18,0.66
		c0,0.65,0.54,1.05,1.16,1.05c1.22,0,1.76-1.68,1.76-1.87c0-0.16-0.16-0.16-0.2-0.16c-0.17,0-0.18,0.07-0.23,0.21
		c-0.28,0.98-0.81,1.48-1.29,1.48c-0.26,0-0.31-0.17-0.31-0.43c0-0.28,0.06-0.44,0.28-0.99c0.15-0.38,0.65-1.67,0.65-2.36
		c0-1.18-0.94-1.39-1.59-1.39c-1.01,0-1.7,0.62-2.06,1.11c-0.09-0.84-0.81-1.11-1.31-1.11c-0.53,0-0.81,0.38-0.97,0.66
		c-0.27,0.45-0.44,1.15-0.44,1.21c0,0.16,0.17,0.16,0.21,0.16c0.17,0,0.18-0.04,0.27-0.37c0.18-0.72,0.42-1.32,0.89-1.32
		c0.32,0,0.4,0.27,0.4,0.6c0,0.23-0.11,0.68-0.2,1.01c-0.09,0.33-0.21,0.83-0.27,1.1L462.03,305.06"/>
	<path class="st7" d="M472.83,290.7c0-0.32,0-0.63-0.35-0.63c-0.35,0-0.35,0.32-0.35,0.63v16.24c0,0.32,0,0.63,0.35,0.63
		c0.35,0,0.35-0.31,0.35-0.63V290.7"/>
	<path class="st7" d="M480.3,301.11c-0.09,0.32-0.09,0.35-0.35,0.65c-0.77,0.96-1.49,1.24-1.98,1.24c-0.87,0-1.12-0.96-1.12-1.64
		c0-0.88,0.56-3.03,0.96-3.83c0.54-1.03,1.33-1.68,2.03-1.68c1.14,0,1.38,1.43,1.38,1.54c0,0.11-0.04,0.21-0.05,0.3L480.3,301.11
		 M483.94,291.24c0-0.02,0-0.19-0.23-0.19c-0.26,0-1.92,0.16-2.22,0.19c-0.14,0.02-0.24,0.11-0.24,0.33c0,0.21,0.16,0.21,0.42,0.21
		c0.84,0,0.87,0.12,0.87,0.3l-0.05,0.35l-1.05,4.15c-0.31-0.65-0.82-1.12-1.61-1.12c-2.05,0-4.22,2.57-4.22,5.13
		c0,1.64,0.96,2.8,2.33,2.8c0.35,0,1.22-0.07,2.27-1.31c0.14,0.73,0.75,1.31,1.59,1.31c0.61,0,1.01-0.4,1.29-0.96
		c0.3-0.63,0.53-1.7,0.53-1.73c0-0.18-0.16-0.18-0.21-0.18c-0.18,0-0.19,0.07-0.25,0.32c-0.3,1.14-0.61,2.17-1.33,2.17
		c-0.47,0-0.52-0.45-0.52-0.8c0-0.42,0.04-0.54,0.1-0.84L483.94,291.24z"/>
	<path class="st7" d="M489.08,298.82c0-1.36-0.19-3.48-1.16-5.46c-1.05-2.15-2.55-3.29-2.73-3.29c-0.1,0-0.17,0.07-0.17,0.18
		c0,0.05,0,0.09,0.33,0.4c1.71,1.73,2.71,4.51,2.71,8.17c0,2.99-0.65,6.07-2.82,8.28c-0.23,0.21-0.23,0.24-0.23,0.3
		c0,0.11,0.07,0.18,0.17,0.18c0.18,0,1.75-1.19,2.78-3.41C488.87,302.23,489.08,300.29,489.08,298.82"/>
	<path class="st7" d="M500.17,292.33c0-2.06,1.05-3.85,3.39-5.11c0.12-0.07,0.14-0.09,0.14-0.37c0-0.3-0.02-0.32-0.21-0.42
		c-3.15-1.68-3.32-4.25-3.32-4.76v-10.39c0-2.54-1.75-4.2-3.92-5.23c-0.38-0.19-0.42-0.19-0.68-0.19c-0.37,0-0.38,0.02-0.38,0.38
		c0,0.26,0,0.3,0.16,0.39c0.75,0.37,2.99,1.5,3.34,4.01c0.03,0.24,0.03,0.44,0.03,1.49v8.96c0,0.82,0,2.12,1.1,3.53
		c0.68,0.87,1.68,1.68,2.89,2.22c-3.41,1.64-3.99,4.16-3.99,5.16v10.08c0,0.91,0,1.92-1.01,3.2c-0.79,0.98-1.65,1.43-2.4,1.8
		c-0.12,0.07-0.12,0.14-0.12,0.37c0,0.37,0.02,0.39,0.38,0.39c0.25,0,0.28,0,0.73-0.21c1.73-0.86,3.45-2.24,3.81-4.37
		c0.05-0.35,0.05-0.51,0.05-1.68V292.33"/>
	<path class="st9" d="M404.38,286.78L404.38,286.78z"/>
</g>
<polygon class="st10" points="404.01,286.98 404.01,286.98 404.01,286.98 404.01,286.98 404.01,286.98 404.01,286.98 404.01,286.98 
	404.01,286.98 404.01,286.98 404.01,286.98 404.01,286.98 404.01,286.98 404.01,286.98 404.01,286.98 404.01,286.98 404.01,286.98 
	404.01,286.98 404.01,286.98 404.01,286.98 404.01,286.98 404.01,286.98 404.01,286.98 404.01,286.98 404.01,286.98 404.01,286.98 
	404.01,286.98 404.01,286.98 404.01,286.98 404.01,286.98 404.01,286.98 404.01,286.98 404.01,286.98 404.01,286.98 404.01,286.98 
	404.01,286.98 404.01,286.98 404.01,286.98 404.01,286.98 404.01,286.98 404.01,286.98 404.01,286.98 404.01,286.98 404.01,286.98 
	404.01,286.98 404.01,286.98 404.01,286.98 404.01,286.98 404.01,286.98 404.01,286.98 404.01,286.98 404.01,286.98 404.01,286.98 
	404.01,286.98 404.01,286.98 404.01,286.98 404.01,286.98 404.01,286.98 404.01,286.98 404.01,286.98 404.01,286.98 404.01,286.98 
	404.01,286.98 404.01,286.98 404.01,286.98 404.01,286.98 404.01,286.98 404.01,286.98 404.01,286.98 404.01,286.98 404.01,286.98 
	404.01,286.98 404.01,286.98 404.01,286.98 404.01,286.98 404.01,286.98 404.01,286.98 404.01,286.98 404.01,286.98 404.01,286.98 
	404.01,286.98 404.01,286.98 404.01,286.98 404.01,286.98 404.01,286.98 404.01,286.98 404.01,286.98 404.01,286.98 404.01,286.98 
	404.01,286.98 404.01,286.98 404.01,286.98 404.01,286.98 404.01,286.98 404.01,286.98 404.01,286.98 404.01,286.98 404.01,286.98 
	404.01,286.98 "/>
</svg>
