<?xml version="1.0" encoding="utf-8"?>
<!-- Generator: Adobe Illustrator 23.0.3, SVG Export Plug-In . SVG Version: 6.00 Build 0)  -->
<svg version="1.1" id="Layer_1" xmlns="http://www.w3.org/2000/svg" xmlns:xlink="http://www.w3.org/1999/xlink" x="0px" y="0px"
	 viewBox="0 0 619.5 318.5" style="enable-background:new 0 0 619.5 318.5;" xml:space="preserve">
<style type="text/css">
	.st0{fill:#909090;}
	.st1{fill:#FFFFFF;stroke:#E36F1E;stroke-width:3;stroke-miterlimit:10;}
	.st2{fill:none;}
	.st3{font-family:'ArialMT';}
	.st4{font-size:18px;}
	.st5{fill:#FFFFFF;stroke:#808080;stroke-width:3;stroke-miterlimit:10;}
	.st6{fill:none;stroke:#808080;stroke-width:3;stroke-miterlimit:10;}
	.st7{fill:none;stroke:#000000;stroke-width:1.000000e-06;stroke-miterlimit:10;stroke-opacity:0;}
</style>
<g>
	<g>
		<g>
			<polygon class="st0" points="403.91,58.5 403.91,85.71 392.35,85.71 405.5,108.5 418.65,85.71 407.09,85.71 407.09,58.5 			"/>
		</g>
	</g>
</g>
<rect x="302.5" y="1.5" class="st1" width="206" height="57"/>
<rect x="320.43" y="21.21" class="st2" width="171.57" height="17.79"/>
<text transform="matrix(1 0 0 1 321.4248 33.9927)" class="st3 st4">Random Walk Sampler</text>
<rect x="302.5" y="108.5" class="st1" width="206" height="70"/>
<rect x="320.43" y="128.39" class="st2" width="171.57" height="45.31"/>
<text transform="matrix(1 0 0 1 336.3193 141.1724)" class="st3 st4">Solve Forward Eqn</text>
<text transform="matrix(1 0 0 1 348.3493 162.7724)" class="st3 st4">to get Sim Data</text>
<rect x="302.5" y="228.5" class="st1" width="206" height="87"/>
<rect x="320.43" y="243.21" class="st2" width="171.57" height="17.79"/>
<text transform="matrix(1 0 0 1 331.1001 273.9927)" class="st3 st4">Metropolis Criterion</text>
<path class="st5" d="M805.5,161.5"/>
<rect x="1.5" y="237.5" class="st1" width="206" height="70"/>
<rect x="19.43" y="253.39" class="st2" width="171.57" height="40.61"/>
<text transform="matrix(1 0 0 1 50.2773 266.1724)" class="st3 st4">Update step in</text>
<text transform="matrix(1 0 0 1 54.8273 287.7724)" class="st3 st4">Markov chain</text>
<path class="st6" d="M377.5,386.5"/>
<rect x="533.86" y="251.35" class="st2" width="94.6" height="15.77"/>
<text transform="matrix(1 0 0 1 533.8574 264.1299)" class="st3 st4">Reject</text>
<rect x="234.86" y="251.35" class="st2" width="94.6" height="15.77"/>
<text transform="matrix(1 0 0 1 234.8574 264.1299)" class="st3 st4">Accept</text>
<g>
	<g>
		<g>
			<polygon class="st0" points="403.91,178.5 403.91,205.72 392.35,205.72 405.5,228.5 418.65,205.72 407.09,205.72 407.09,178.5 
							"/>
		</g>
	</g>
</g>
<g>
	<g>
		<g>
			<path class="st0" d="M508.5,274.09h57.73h28.86h15.18h4.04h2.02h1.01h0.51c0.08-0.01,0.18,0.02,0.24-0.02v-0.25v-8.09V149.59
				V34.07v-8.09v-4.04v-2.02l-2.01-0.01h-15.8h-28.86H531.3V8.35L508.5,21.5l22.78,13.15V23.09h40.12h28.86h13.06l1.58,0.01v1.59
				v3.17v6.35V149.6v114.77v6.35v0.2c-0.04,0.02-0.13,0.01-0.19,0.01h-0.4h-0.79h-1.59h-3.17h-13.69h-28.86H508.5V274.09z"/>
		</g>
	</g>
</g>
<g>
	<g>
		<g>
			<polygon class="st0" points="302.5,268.91 230.28,268.91 230.28,257.35 207.5,270.5 230.28,283.65 230.28,272.09 302.5,272.09 
							"/>
		</g>
	</g>
</g>
<g>
	<g>
		<g>
			<path class="st0" d="M107.09,237.5V34.72V23.56c-0.2-0.67,0.49-0.44,0.92-0.48h1.39h2.79h5.57h25.22h50.7h86.04v11.57l2.44-1.41
				L302.5,21.5L282.15,9.75l-2.44-1.41v11.57h-86.04h-50.7H117.5h-7.1h-3.55h-1.78h-0.89h-0.22c-0.05-0.01-0.07,0-0.06,0.05v0.11
				v0.44v14.2V237.5H107.09z"/>
		</g>
	</g>
</g>
<polygon class="st7" points="404.01,286.98 404.01,286.98 404.01,286.98 404.01,286.98 404.01,286.98 404.01,286.98 404.01,286.98 
	404.01,286.98 404.01,286.98 404.01,286.98 404.01,286.98 404.01,286.98 404.01,286.98 404.01,286.98 404.01,286.98 404.01,286.98 
	404.01,286.98 404.01,286.98 404.01,286.98 404.01,286.98 404.01,286.98 404.01,286.98 404.01,286.98 404.01,286.98 404.01,286.98 
	404.01,286.98 404.01,286.98 404.01,286.98 404.01,286.98 404.01,286.98 404.01,286.98 404.01,286.98 404.01,286.98 404.01,286.98 
	404.01,286.98 404.01,286.98 404.01,286.98 404.01,286.98 404.01,286.98 404.01,286.98 404.01,286.98 404.01,286.98 404.01,286.98 
	404.01,286.98 404.01,286.98 404.01,286.98 404.01,286.98 404.01,286.98 404.01,286.98 404.01,286.98 404.01,286.98 404.01,286.98 
	404.01,286.98 404.01,286.98 404.01,286.98 404.01,286.98 404.01,286.98 404.01,286.98 404.01,286.98 404.01,286.98 404.01,286.98 
	404.01,286.98 404.01,286.98 404.01,286.98 404.01,286.98 404.01,286.98 404.01,286.98 404.01,286.98 404.01,286.98 404.01,286.98 
	404.01,286.98 404.01,286.98 404.01,286.98 404.01,286.98 404.01,286.98 404.01,286.98 404.01,286.98 404.01,286.98 404.01,286.98 
	404.01,286.98 404.01,286.98 404.01,286.98 404.01,286.98 404.01,286.98 404.01,286.98 404.01,286.98 404.01,286.98 404.01,286.98 
	404.01,286.98 404.01,286.98 404.01,286.98 404.01,286.98 404.01,286.98 404.01,286.98 404.01,286.98 404.01,286.98 404.01,286.98 
	"/>
</svg>
